<svg width="131" height="32" viewBox="0 0 131 32" fill="none" xmlns="http://www.w3.org/2000/svg">
<path d="M13.7139 2.28516C21.2878 2.28524 27.4277 8.4256 27.4277 16C27.4276 18.7172 26.6337 21.2479 25.2705 23.3789L21.4395 19.5479C22.8769 16.4087 22.3061 12.568 19.7256 9.9873C16.4113 6.67218 11.0172 6.67227 7.70215 9.9873C4.38707 13.3018 4.38707 18.6964 7.70215 22.0117C8.85527 23.1655 10.726 23.1654 11.8799 22.0117C13.0338 20.8585 13.0338 18.987 11.8799 17.833C10.8691 16.8219 10.8691 15.1771 11.8799 14.166C12.8909 13.1549 14.5368 13.1549 15.5479 14.166C16.5584 15.177 16.5584 16.822 15.5479 17.833C14.3939 18.9862 14.3939 20.8577 15.5479 22.0117L21.0928 27.5566C18.9618 28.9207 16.431 29.7138 13.7139 29.7139C6.13995 29.7139 0.000236835 23.5742 0 16C0 8.42555 6.1398 2.28516 13.7139 2.28516ZM24.4736 23.8027C26.1051 23.8027 27.4285 25.1253 27.4287 26.7568C27.4287 28.3886 26.1052 29.7119 24.4736 29.7119C22.8421 29.7118 21.5195 28.3885 21.5195 26.7568C21.5198 25.1254 22.8422 23.8029 24.4736 23.8027Z" fill="white"/>
<path d="M128.039 19.7298H130.772C130.19 22.1672 128.238 23.6481 125.635 23.6481C122.407 23.6481 120.227 21.3661 120.227 17.9916C120.227 14.6268 122.382 12.3594 125.577 12.3594C128.743 12.3594 130.821 14.5831 130.821 17.977C130.821 18.2344 130.811 18.4966 130.782 18.7685H123.033C123.222 20.3707 124.203 21.3224 125.718 21.3224C126.849 21.3224 127.616 20.7883 128.039 19.7298ZM123.067 16.972H128.029C127.786 15.4425 126.951 14.6463 125.592 14.6463C124.198 14.6463 123.3 15.4911 123.067 16.972Z" fill="white"/>
<path d="M115.522 18.4671V23.3565H112.613V12.6504H115.522V16.3696C115.91 14.0779 117.007 12.6504 119.1 12.6504H119.741V15.3888H118.615C116.231 15.3888 115.522 16.3599 115.522 18.4671Z" fill="white"/>
<path d="M100.746 18.0013C100.746 14.5831 102.975 12.3594 106.174 12.3594C109.374 12.3594 111.603 14.5831 111.603 18.0013C111.603 21.4195 109.374 23.6481 106.174 23.6481C102.975 23.6481 100.746 21.4195 100.746 18.0013ZM103.674 18.0013C103.674 19.9823 104.601 21.1136 106.174 21.1136C107.752 21.1136 108.675 19.9871 108.675 18.0013C108.675 16.0155 107.752 14.8939 106.174 14.8939C104.601 14.8939 103.674 16.0203 103.674 18.0013Z" fill="white"/>
<path d="M94.61 23.3566V14.9617H93.168V12.6505H94.61V12.3495C94.61 9.75186 96.0618 8.35352 98.7516 8.35352C99.3391 8.35352 99.9946 8.41664 100.66 8.54287V10.7861C100.15 10.6938 99.6742 10.6452 99.2809 10.6452C97.9845 10.6452 97.3824 11.2036 97.3824 12.3835V12.6505H100.665V14.9617H97.5184V23.3566H94.61Z" fill="white"/>
<path d="M89.9334 19.7298H92.6669C92.0843 22.1672 90.1324 23.6481 87.53 23.6481C84.3011 23.6481 82.1211 21.3661 82.1211 17.9916C82.1211 14.6268 84.2769 12.3594 87.4717 12.3594C90.6374 12.3594 92.7155 14.5831 92.7155 17.977C92.7155 18.2344 92.7058 18.4966 92.6766 18.7685H84.9275C85.1168 20.3707 86.0976 21.3224 87.6125 21.3224C88.7438 21.3224 89.511 20.7883 89.9334 19.7298ZM84.9615 16.972H89.9237C89.6809 15.4425 88.8458 14.6463 87.4863 14.6463C86.0928 14.6463 85.1945 15.4911 84.9615 16.972Z" fill="white"/>
<path d="M69.1172 9.4707H76.0652C78.9299 9.4707 80.7943 10.8205 80.7943 12.986C80.7943 14.7291 79.5902 15.9769 77.9345 16.1711C79.9349 16.3556 81.3818 17.72 81.3818 19.6184C81.3818 21.9053 79.2795 23.357 76.2351 23.357H69.1172V9.4707ZM75.7496 15.2437C76.9586 15.2437 77.7549 14.598 77.7549 13.5298C77.7549 12.4907 77.0023 11.9275 75.7448 11.9275H72.1858V15.2437H75.7496ZM72.1858 20.9002H76.0167C77.5412 20.9002 78.3132 20.3564 78.3132 19.1911C78.3132 18.0307 77.5412 17.4869 76.0215 17.4869H72.1858V20.9002Z" fill="white"/>
<path d="M67.8822 12.6502L62.9005 18.0493L68.2949 23.3562H64.5854L60.4826 19.234V23.3562H57.5742V8.98438H60.4826V17.1608L64.4494 12.6502H67.8822Z" fill="white"/>
<path d="M51.3303 12.3594C54.4814 12.3594 56.3022 13.7771 56.3022 16.0883H53.4327C53.4327 15.0929 52.7189 14.486 51.3934 14.486C50.2233 14.486 49.427 14.9473 49.427 15.6367C49.427 16.4816 50.4855 16.6515 51.6605 16.8506L52.3742 16.9768C54.0979 17.2681 56.6275 17.7003 56.6275 20.259C56.6275 22.4148 54.8213 23.6481 51.5779 23.6481C48.1646 23.6481 46.3633 22.2837 46.3633 19.8366H49.2328C49.2328 20.9145 49.9854 21.502 51.5537 21.502C52.9277 21.502 53.7629 21.0602 53.7629 20.3027C53.7629 19.3899 52.7238 19.2054 51.3497 18.9627L50.636 18.8364C49.058 18.5597 46.5624 18.1275 46.5624 15.6902C46.5624 13.6315 48.3491 12.3594 51.3303 12.3594Z" fill="white"/>
<path d="M35.6303 23.357H32.4258L37.2132 9.4707H41.515L46.2344 23.357H42.9619L42.0345 20.303H36.5723L35.6303 23.357ZM37.3491 17.7976H41.2722L39.3252 11.4031L37.3491 17.7976Z" fill="white"/>
</svg>
