<svg width="108" height="20" viewBox="0 0 108 20" fill="none" xmlns="http://www.w3.org/2000/svg">
<g clip-path="url(#clip0_147_3064)">
<path d="M52.2764 4.52148C55.3767 4.52148 57.5723 5.01785 58.8613 6.01074C59.3664 6.38731 59.7067 6.82396 59.8809 7.32031C60.0551 7.79964 60.1416 8.32279 60.1416 8.8877V8.96484H54.8105C54.7931 8.93052 54.7501 8.81865 54.6807 8.63086C54.6283 8.44267 54.4889 8.25361 54.2627 8.06543C53.8099 7.74028 53.0693 7.57818 52.042 7.57812H51.9629C50.8661 7.57815 50.1344 7.68046 49.7686 7.88574C49.3857 8.10821 49.1935 8.39956 49.1934 8.75879C49.1934 9.13531 49.3686 9.44396 49.7168 9.68359C50.0827 9.9402 50.7793 10.0766 51.8066 10.0938L53.793 10.1709C56.2312 10.2737 57.9993 10.7018 59.0967 11.4551C59.5842 11.7974 59.9325 12.2175 60.1416 12.7139C60.3505 13.1932 60.4551 13.7504 60.4551 14.3838V14.5635C60.455 15.2481 60.3506 15.8737 60.1416 16.4385C59.95 16.986 59.5924 17.4736 59.0703 17.9014C57.7987 18.9284 55.5867 19.4423 52.4346 19.4424H51.7539C48.6541 19.4423 46.4679 18.8353 45.1963 17.6201C44.3952 16.8498 43.9943 15.9416 43.9941 14.8975V14.7686H49.4561C49.5084 15.1621 49.6825 15.4708 49.9785 15.6934C50.4489 16.0867 51.2406 16.2841 52.3545 16.2842H52.4072C53.4346 16.2842 54.184 16.1385 54.6543 15.8477C55.0199 15.6251 55.204 15.3164 55.2041 14.9229C55.2041 14.7176 55.1682 14.546 55.0986 14.4092C55.0463 14.2551 54.924 14.1262 54.7324 14.0234C54.3317 13.784 53.5658 13.6309 52.4346 13.5625L50.4482 13.4072C48.2712 13.2874 46.6255 12.8332 45.5107 12.0459C44.5527 11.3783 44.0723 10.4113 44.0723 9.14453V8.99023C44.0723 7.62066 44.5607 6.56722 45.5361 5.83105C46.738 4.95807 48.7499 4.52153 51.5713 4.52148H52.2764ZM70.2969 4.52148C73.397 4.52151 75.5918 5.01795 76.8809 6.01074C77.3859 6.3873 77.7261 6.82397 77.9004 7.32031C78.0745 7.79964 78.1621 8.32279 78.1621 8.8877V8.96484H72.8311C72.8136 8.93063 72.7697 8.81893 72.7002 8.63086C72.6478 8.44275 72.5093 8.25353 72.2832 8.06543C71.8304 7.74027 71.0898 7.5782 70.0625 7.57812H69.9834C68.8863 7.57815 68.1539 7.68032 67.7881 7.88574C67.4053 8.10821 67.213 8.39954 67.2129 8.75879C67.213 9.13535 67.389 9.44395 67.7373 9.68359C68.1034 9.94008 68.8001 10.0766 69.8271 10.0938L71.8125 10.1709C74.2509 10.2736 76.0198 10.7018 77.1172 11.4551C77.6047 11.7974 77.9531 12.2176 78.1621 12.7139C78.371 13.1931 78.4756 13.7505 78.4756 14.3838V14.5635C78.4755 15.2481 78.3711 15.8737 78.1621 16.4385C77.9705 16.9862 77.6123 17.4735 77.0898 17.9014C75.8182 18.9284 73.6066 19.4423 70.4541 19.4424H69.7744C66.6746 19.4424 64.4884 18.8351 63.2168 17.6201C62.4157 16.8498 62.0148 15.9416 62.0146 14.8975V14.7686H67.4756C67.5279 15.1621 67.702 15.4708 67.998 15.6934C68.4683 16.0869 69.2608 16.2841 70.375 16.2842H70.4277C71.4552 16.2841 72.2046 16.1386 72.6748 15.8477C73.0405 15.6251 73.2235 15.3164 73.2236 14.9229C73.2236 14.7176 73.1886 14.546 73.1191 14.4092C73.0669 14.2551 72.9443 14.1262 72.7529 14.0234C72.3522 13.7839 71.5857 13.6309 70.4541 13.5625L68.4678 13.4072C66.2906 13.2873 64.6441 12.8334 63.5293 12.0459C62.5717 11.3783 62.0929 10.4111 62.0928 9.14453V8.99023C62.0928 7.62068 62.5803 6.56722 63.5557 5.83105C64.7575 4.95798 66.7693 4.52154 69.5908 4.52148H70.2969ZM88.458 4.52148C91.5583 4.52148 93.7539 5.01788 95.043 6.01074C95.5479 6.3873 95.8882 6.82397 96.0625 7.32031C96.2366 7.79964 96.3232 8.32279 96.3232 8.8877V8.96484H90.9922C90.9748 8.93052 90.9318 8.81865 90.8623 8.63086C90.81 8.44267 90.6705 8.25361 90.4443 8.06543C89.9915 7.74027 89.2509 7.57817 88.2236 7.57812H88.1445C87.0478 7.57816 86.3161 7.68046 85.9502 7.88574C85.5674 8.1082 85.3761 8.39956 85.376 8.75879C85.3761 9.13531 85.5502 9.44396 85.8984 9.68359C86.2644 9.9402 86.9611 10.0766 87.9883 10.0938L89.9746 10.1709C92.4129 10.2737 94.181 10.7018 95.2783 11.4551C95.766 11.7974 96.1142 12.2175 96.3232 12.7139C96.5322 13.1932 96.6367 13.7504 96.6367 14.3838V14.5635C96.6367 15.2481 96.5322 15.8737 96.3232 16.4385C96.1316 16.986 95.774 17.4736 95.252 17.9014C93.9804 18.9284 91.7683 19.4423 88.6162 19.4424H87.9355C84.8357 19.4423 82.6495 18.8353 81.3779 17.6201C80.5767 16.8498 80.1759 15.9416 80.1758 14.8975V14.7686H85.6377C85.69 15.1621 85.8643 15.4708 86.1602 15.6934C86.6305 16.0867 87.4222 16.2841 88.5361 16.2842H88.5889C89.6163 16.2842 90.3656 16.1385 90.8359 15.8477C91.2017 15.6251 91.3856 15.3164 91.3857 14.9229C91.3857 14.7176 91.3498 14.546 91.2803 14.4092C91.228 14.2551 91.1057 14.1262 90.9141 14.0234C90.5134 13.784 89.7475 13.6309 88.6162 13.5625L86.6299 13.4072C84.4529 13.2874 82.8073 12.8332 81.6924 12.0459C80.7345 11.3783 80.254 10.4113 80.2539 9.14453V8.99023C80.254 7.62066 80.7423 6.56722 81.7178 5.83105C82.9196 4.95807 84.9315 4.52153 87.7529 4.52148H88.458ZM33.6523 4.5459C37.0316 4.5459 39.418 5.38559 40.8115 7.06348C41.874 8.36461 42.4062 10.2044 42.4062 12.584V13.0469H29.21C29.332 13.9542 29.7079 14.656 30.335 15.1523C31.0663 15.7343 32.1545 16.0253 33.5996 16.0254C34.8364 16.0254 35.7694 15.8284 36.3965 15.4346C36.6571 15.2638 36.8228 15.1103 36.8926 14.9736L37.0498 14.6641H42.3535C42.3535 15.2462 42.1794 15.829 41.8311 16.4111C41.3433 17.2499 40.5423 17.9351 39.4277 18.4658C38.0517 19.1164 36.2132 19.4414 33.9141 19.4414H32.9473C29.7078 19.4413 27.3299 18.6539 25.8145 17.0791C24.6126 15.8464 24.0117 14.2103 24.0117 12.1729V11.8145C24.0117 9.86292 24.569 8.24494 25.6836 6.96094C27.112 5.35154 29.3859 4.5459 32.5039 4.5459H33.6523ZM9.95508 0C13.1252 2.46017e-05 15.7037 0.479716 17.6895 1.43848C19.3787 2.2602 20.6325 3.39855 21.4512 4.85352C22.0956 6.06902 22.4179 7.41348 22.418 8.88574V9.65625C22.4179 11.2312 22.1315 12.6448 21.5566 13.8945C20.825 15.4694 19.6222 16.6841 17.9502 17.54C15.9123 18.5844 14.0828 19.1074 10.8037 19.1074C10.3155 19.0941 9.82971 19.0823 9.35059 19.0732C4.23223 18.9768 0.000277945 14.8789 0 9.76367V0H9.95508ZM103.976 4.85352H107.294V8.44824H103.976V13.6875C103.976 14.2695 104.079 14.6811 104.288 14.9209C104.497 15.1605 104.899 15.2792 105.491 15.2793H107.294V19.1064H102.669C101.467 19.1064 100.535 18.7803 99.873 18.1299C99.2288 17.4793 98.9062 16.5208 98.9062 15.2539V0.512695H103.976V4.85352ZM5.38184 9.42773C5.38197 12.419 7.81 14.8437 10.8037 14.8438C13.6775 14.8437 14.5983 14.2268 15.7305 12.9941C16.1479 12.5323 16.4351 12.0102 16.5918 11.4287C16.7485 10.8468 16.8271 10.2212 16.8271 9.55371V9.39941C16.8271 7.92712 16.452 6.79732 15.7031 6.00977C14.5884 4.82853 12.5936 4.23737 9.71973 4.2373H5.38184V9.42773ZM33.1572 7.80762C31.9382 7.80762 30.9968 8.0472 30.335 8.52637C29.7601 8.92016 29.4021 9.52876 29.2627 10.3506H36.9443C36.9443 9.68287 36.7185 9.12581 36.2656 8.68066C35.6735 8.09868 34.6373 7.80775 33.1572 7.80762Z" fill="white"/>
</g>
<defs>
<clipPath id="clip0_147_3064">
<rect width="107.5" height="20" fill="white"/>
</clipPath>
</defs>
</svg>
