<svg width="58" height="56" viewBox="0 0 58 56" fill="none" xmlns="http://www.w3.org/2000/svg">
<path d="M34.1742 0.434394C33.0263 0.16137 31.8654 -0.114778 30.6315 0.0491723C30.6888 0.0692759 30.7458 0.0913757 30.8028 0.113485C30.932 0.163573 31.0613 0.213716 31.1949 0.240796C35.6271 1.12617 39.8917 2.52787 44.0244 4.34475C44.0724 4.36572 44.1242 4.3902 44.1785 4.41582C44.5236 4.57875 44.9665 4.78786 45.1298 4.43524C45.2978 4.0719 44.8638 3.88311 44.5129 3.73047C44.4543 3.70496 44.3979 3.68046 44.3471 3.65632C41.1718 2.14817 37.7844 1.28408 34.3826 0.483875C34.3132 0.467459 34.2437 0.450932 34.1742 0.434394Z" fill="white"/>
<path d="M43.8657 7.83656C44.2758 6.96361 44.8178 6.45616 45.884 6.64069C46.6542 6.77376 47.1587 5.7837 46.9287 4.83978C46.8555 4.53814 46.6655 4.32313 46.4741 4.10656C46.3345 3.9486 46.1941 3.78981 46.0979 3.59599C47.5153 3.77875 48.1464 5.12544 47.608 6.35325C46.5305 8.80838 44.3835 10.0362 42.225 11.2707L42.1863 11.2929C42.1458 11.316 42.1014 11.3436 42.0544 11.3729C41.7657 11.5526 41.3787 11.7934 41.2039 11.4242C41.0638 11.127 41.4793 10.9304 41.8054 10.776C41.857 10.7515 41.9064 10.7282 41.9509 10.7056C42.0547 10.6535 42.159 10.6023 42.2632 10.5513C42.8505 10.2635 43.4361 9.97658 43.9085 9.50795C44.1385 9.28084 44.3543 9.03599 44.5504 8.77872C44.7358 8.53564 44.8267 8.2482 44.6894 7.94834C44.5718 7.69165 44.4154 7.74869 44.2454 7.81068C44.1216 7.85581 43.9906 7.90356 43.8622 7.83479L43.8657 7.83656Z" fill="white"/>
<path d="M44.5849 17.8667C45.0453 18.0294 45.5014 18.1905 46.0391 18.1878L46.0373 18.1825C45.5761 17.6426 45.0717 17.4297 44.5907 17.2268C44.5027 17.1896 44.4153 17.1528 44.3293 17.1144C43.7035 16.834 43.4646 16.5413 44.1243 16.0125C44.8196 15.4554 45.5203 14.916 46.2905 14.4618C46.8182 14.1513 47.2425 14.2542 47.6294 14.6924C48.207 15.3489 48.56 16.1279 48.8596 16.9334C49.0428 17.4236 49.2138 17.9177 49.3849 18.412C49.4484 18.5958 49.512 18.7795 49.5763 18.9632C49.723 17.1617 49.0195 15.583 48.3049 13.9793L48.2338 13.8195C48.6122 13.7922 48.7625 13.9687 48.9007 14.131C48.9331 14.169 48.9648 14.2063 48.9986 14.24C49.5638 14.7989 50.1129 14.7173 50.6246 14.1885C51.0953 13.7006 51.3164 13.0885 51.3431 12.4196C51.3574 12.0487 50.6514 11.3479 50.416 11.4827C50.3494 11.521 50.2816 11.5587 50.2135 11.5966L50.2131 11.5968L50.2129 11.5969L50.2114 11.5978C49.7301 11.8656 49.2335 12.142 49.0058 12.6573C48.8275 13.0583 48.5921 13.2109 48.207 13.202C47.998 13.198 47.8227 13.2879 47.6497 13.3766C47.5173 13.4445 47.3863 13.5118 47.2425 13.5356C47.1383 13.427 47.1175 13.2915 47.0965 13.1537C47.0711 12.9876 47.0452 12.8183 46.8717 12.6893C45.6237 13.4522 44.4256 14.3181 43.297 15.2726C42.8317 15.6665 42.3895 16.0161 41.7406 15.9114C41.7389 16.0835 41.8433 16.1863 41.9477 16.2889C42.0659 16.4052 42.184 16.5214 42.147 16.7382C41.6539 16.8698 41.2522 16.6527 40.8493 16.4348C40.5297 16.262 40.2093 16.0888 39.8418 16.0888C39.6903 16.0888 39.5316 15.7499 39.5298 15.4944C39.5137 13.9632 40.2198 13.0069 41.737 12.4834C42.5553 12.2031 43.3434 11.8695 44.0886 11.1013C43.5078 11.2726 42.9738 11.4988 42.4552 11.7186C41.5823 12.0884 40.7529 12.4398 39.8168 12.4799C39.3355 12.4994 39.093 12.8436 39.1536 13.3475C39.2538 14.1788 39.05 14.9682 38.8456 15.7602C38.8353 15.7999 38.8251 15.8397 38.8149 15.8795C38.7999 15.938 38.7836 15.9967 38.7673 16.0553C38.6439 16.4989 38.521 16.9405 38.9824 17.3432C39.1679 17.5029 39.1001 17.7868 38.9521 17.9997C38.8594 18.1346 38.7204 18.1914 38.5653 18.1399C38.3014 18.0512 38.2354 17.8241 38.2105 17.5792C38.2027 17.5064 38.2001 17.4322 38.1974 17.3579C38.1891 17.1245 38.1807 16.8912 38.0144 16.7027C37.7973 16.7688 37.7474 16.9171 37.6997 17.0586C37.6707 17.145 37.6424 17.2288 37.5775 17.29C37.2495 17.6005 36.9393 17.9181 37.2441 18.4327C37.5579 18.9614 38.0072 19.2116 38.6152 19.2826C39.208 19.352 39.5703 18.9935 40.0566 18.5125C40.0924 18.4771 40.1289 18.4409 40.1663 18.4043C39.9933 18.9632 39.799 19.2453 39.5227 19.4014C38.444 20.0118 38.4815 20.938 38.7311 21.9422C39.0716 23.3102 39.5993 24.6019 40.4391 25.8315C40.2777 25.8791 40.1206 25.9345 39.9664 25.9889C39.2927 26.2267 38.6756 26.4444 38.0126 25.8971C37.8396 25.7534 37.5419 25.6736 37.4991 26.0728C37.4385 26.6228 38.3388 27.5047 38.8327 27.2775C39.0842 27.1622 39.3759 27.1441 39.6702 27.1258C40.2586 27.0893 40.8575 27.0521 41.1665 26.236C41.1938 26.1628 41.268 26.1027 41.3458 26.0398C41.5169 25.9014 41.7054 25.7488 41.4517 25.411C40.7372 24.4586 40.3633 23.3579 39.989 22.2561C39.8982 21.9888 39.8074 21.7214 39.7116 21.4561C39.5744 21.0764 39.6296 20.7889 39.9131 20.5015C40.038 20.375 40.149 20.2337 40.2598 20.0927C40.4068 19.9056 40.5535 19.719 40.7315 19.5682C40.812 19.4997 40.886 19.3955 40.9616 19.2891C41.1972 18.9574 41.4478 18.6045 41.9581 19.2453C42.0597 19.3748 42.3146 19.2453 42.4127 19.0892C42.6124 18.7716 42.7461 18.7503 42.9137 19.114C43.0135 19.3287 43.2257 19.2826 43.3612 19.1548C43.7623 18.7769 44.1617 18.9206 44.5949 19.0856C45.0567 19.2613 45.5399 19.3659 46.1032 19.0821C45.6784 18.7685 45.2079 18.5784 44.7293 18.385C44.1895 18.167 43.6395 17.9448 43.133 17.5366C43.6756 17.5454 44.1323 17.7068 44.5849 17.8667Z" fill="white"/>
<path fill-rule="evenodd" clip-rule="evenodd" d="M21.2179 25.5866C22.1218 25.1785 22.8956 25.1697 23.6533 25.2992C24.3139 25.4116 24.3294 25.9915 24.3427 26.4878C24.3434 26.5165 24.3442 26.545 24.3451 26.5731C24.3789 27.698 24.4806 28.8105 24.7016 29.9159C24.8104 30.4606 25.0546 30.7179 25.618 30.8048C26.0197 30.8669 26.4235 30.918 26.8273 30.9691L26.8275 30.9691C27.9253 31.1081 29.023 31.247 30.0788 31.6051C30.4115 31.7173 30.4789 31.5466 30.5516 31.3623C30.5708 31.3136 30.5904 31.2639 30.6154 31.2183C31.0184 30.4748 31.4944 29.7846 32.261 29.2843C32.074 29.7355 31.8869 30.1871 31.6998 30.6388C31.5125 31.0911 31.3252 31.5435 31.1378 31.9954C32.031 31.039 32.5605 29.8982 33.0544 28.7413C33.1542 28.5071 33.2238 28.2232 32.8208 28.1168C31.8599 27.8648 31.2804 27.1658 30.8222 26.346C30.8044 26.3142 30.791 26.2786 30.7777 26.2432C30.7392 26.1408 30.7015 26.0404 30.5584 26.0391C30.3747 26.0391 30.3034 26.1899 30.2874 26.3318C30.1376 27.7264 29.1553 28.4184 27.975 29.011C27.7218 28.3403 27.8538 27.8435 28.5598 27.5455C29.0287 27.3467 29.3745 27.0877 28.886 26.5767C28.6431 26.3213 28.7599 26.1094 28.8765 25.898C28.9422 25.7789 29.0078 25.66 29.0091 25.5334C28.8384 25.4532 28.6606 25.4697 28.4688 25.4876C28.2236 25.5104 27.9556 25.5353 27.6505 25.3631C28.5776 24.9461 29.2248 24.405 29.6099 23.571C29.7418 23.2871 30.1358 23.3918 30.4247 23.5089C30.8739 23.6917 31.2305 24.004 31.5764 24.3304L31.6029 24.3554C32.1984 24.9166 32.792 25.476 33.4912 25.9149C34.6893 26.669 34.7018 26.9103 33.9654 28.0831C33.0562 29.5344 32.3858 31.1047 31.8492 32.73L31.845 32.7429C31.828 32.7948 31.8089 32.8531 31.8171 32.9038C31.838 33.0479 31.7094 33.1624 31.585 33.2731C31.4015 33.4365 31.2273 33.5916 31.5568 33.8211C32.0863 34.192 32.737 34.1831 33.3236 33.8229C33.6107 33.6473 33.8175 33.3811 33.9476 33.0848C34.5023 31.8181 35.4097 30.8062 36.316 29.7957L36.3848 29.719C37.3155 28.6828 38.5421 28.1948 39.8757 27.911C40.3677 27.8063 40.6887 27.9465 40.801 28.461C40.8143 28.5224 40.8351 28.5818 40.8561 28.6413C40.8744 28.6936 40.8928 28.746 40.9062 28.7999C41.4232 30.89 41.2931 31.1171 39.2196 31.7151C38.9628 31.7896 38.7061 31.8588 38.4476 31.928L38.4427 31.9293C37.0373 32.3041 37.018 32.3093 37.2281 33.7165C37.3176 34.3177 37.4668 34.9073 37.616 35.497C37.8147 36.2819 38.0134 37.0672 38.0714 37.8807C38.0964 38.2303 38.3139 38.3225 38.6205 38.2977C38.6905 38.2925 38.7613 38.29 38.8321 38.2876C39.0012 38.2817 39.1705 38.2758 39.3301 38.2321C40.7974 37.824 42.1346 38.1132 43.4182 38.8868C43.9549 39.2097 44.5646 39.5042 44.9194 38.6153C44.939 38.5656 44.9979 38.5124 45.0496 38.4982C45.4478 38.393 45.8444 38.2659 46.241 38.1388C47.8311 37.6291 49.4218 37.1191 51.1256 38.0209C51.163 38.0407 51.1998 38.0646 51.2374 38.089C51.3957 38.1918 51.5686 38.3041 51.8566 38.1593C51.1416 37.2846 50.4089 36.5199 49.2375 36.3371C48.0912 36.1579 47.1337 35.5706 46.1977 34.9336C45.8554 34.6994 45.8501 34.5238 46.089 34.1565C46.8467 32.9979 47.3067 31.8091 46.3475 30.4801C46.0034 30.0029 45.9143 29.3606 46.3101 28.8088C46.3244 28.7888 46.3379 28.7689 46.351 28.7496C46.4754 28.5668 46.5631 28.4379 46.9162 28.791C48.0681 29.9415 47.826 31.2088 47.5881 32.454C47.5185 32.8181 47.4493 33.1804 47.4154 33.5373C47.4028 33.6705 47.3899 33.7906 47.3782 33.8992L47.3781 33.8994C47.2727 34.8776 47.2685 34.9169 48.4976 35.1661C48.5635 35.1794 48.6293 35.1927 48.6952 35.2059C49.7662 35.4217 50.8295 35.6359 51.7853 36.2076C53.2365 37.077 53.5182 37.7849 53.1599 39.4084C52.9424 40.3896 52.9049 41.4009 52.896 42.407C52.8889 43.2817 52.7819 44.1209 52.0741 44.7561C51.6462 45.1394 51.8601 45.473 52.1632 45.8172C52.5463 46.2542 52.9243 46.6953 53.3022 47.1364C53.8495 47.7752 54.3967 48.4138 54.9588 49.0393C55.5667 49.7171 55.7985 50.3913 55.0747 51.2536C54.62 50.205 53.8587 49.4208 52.8532 48.617C53.0434 49.0299 53.3312 49.3749 53.6167 49.7171L53.6168 49.7172C54.158 50.366 54.6909 51.0048 54.5345 52.0769C54.1181 51.6381 53.6928 51.2285 53.2755 50.8266C52.2365 49.8258 51.2468 48.8726 50.5676 47.6358C50.1272 46.8321 49.5085 46.1791 48.692 45.803C48.1642 45.5599 47.8754 45.1962 47.5599 44.7544C46.1853 42.8381 44.4969 41.2164 42.5678 39.8644C41.8181 39.3389 40.9195 39.369 40.0408 39.3985C39.9018 39.4031 39.7634 39.4078 39.6261 39.4102C38.0685 39.4362 36.5355 39.6747 35.0027 39.9132C34.1301 40.049 33.2575 40.1848 32.3805 40.2814C29.5439 40.5936 26.8233 40.1164 24.0901 39.5575C23.9649 39.5317 23.829 39.5282 23.6924 39.5248C23.3021 39.5148 22.9064 39.5047 22.7387 38.9737C22.7263 38.9344 22.7126 38.895 22.6988 38.8556L22.6987 38.8553C22.6232 38.6391 22.5478 38.4231 22.703 38.2161C22.8523 38.0171 23.0705 38.0664 23.273 38.1121C23.3052 38.1194 23.337 38.1266 23.368 38.1327C23.5099 38.1602 23.6522 38.1867 23.7945 38.2132C24.2946 38.3063 24.7957 38.3995 25.2829 38.539C28.303 39.4084 31.3464 39.1174 34.3898 38.7413C35.2206 38.6384 35.5165 37.8932 35.069 37.1728C34.9567 36.9936 34.8052 36.8942 34.634 36.9847C34.1529 37.2394 33.6499 37.199 33.1379 37.158C32.6368 37.1178 32.1271 37.0769 31.621 37.3112C30.7598 37.7104 29.3211 36.6228 29.2284 35.6824C29.1677 35.0738 29.601 34.6462 30.0627 34.2984C30.0966 34.273 30.1306 34.2477 30.1645 34.2224C30.4875 33.9822 30.806 33.7453 31.0077 33.3776C31.2662 32.9074 31.2412 32.659 30.6119 32.5419C28.7666 32.1977 26.9142 31.9422 25.0386 32.0291C24.4716 32.0557 24.3165 31.8623 24.2684 31.3637C24.2082 30.724 24.1382 30.0849 24.0682 29.4458C23.9805 28.6456 23.8929 27.8453 23.8245 27.0433C23.7656 26.3673 23.5945 25.9273 22.7779 25.9841C22.3179 26.016 21.849 25.8918 21.225 25.5849L21.2179 25.5866ZM48.0222 39.5961C48.4518 40.1458 48.8827 40.6973 49.2768 41.275C49.8277 42.0805 49.6155 42.7512 48.7669 43.1593C47.8344 43.6082 47.7364 44.2558 48.4691 44.9886C48.8275 45.347 49.2393 45.2529 49.3017 44.8715C49.3992 44.2706 49.6902 43.7613 49.9796 43.2548C50.2303 42.8162 50.4798 42.3795 50.6014 41.8871C50.612 41.8444 50.6227 41.8016 50.6335 41.7586L50.6339 41.757L50.6341 41.7562C50.8696 40.815 51.1223 39.8053 50.3607 39.0305C49.6523 38.311 48.7292 38.5306 47.8519 38.7392C47.7599 38.7611 47.6683 38.7828 47.5777 38.8034C47.5642 38.8067 47.5522 38.8192 47.5301 38.842C47.517 38.8555 47.5004 38.8727 47.4778 38.8939C47.6561 39.1276 47.8376 39.3598 48.0192 39.5923L48.0222 39.5961ZM45.9535 38.7945C45.8729 38.8612 45.7932 38.9368 45.7119 39.0138C45.5252 39.1906 45.3305 39.375 45.0995 39.4776C44.5575 39.7189 44.6039 39.9762 44.9533 40.3169C45.3837 40.7356 45.8173 41.1519 46.251 41.5683L46.2536 41.5707L46.2553 41.5724L46.2578 41.5748C46.5477 41.8531 46.8376 42.1314 47.1266 42.4105C47.3548 42.6305 47.5955 42.7902 47.9129 42.6057C48.269 42.3976 48.1339 42.0914 48.0184 41.8299L48.0163 41.825C47.6098 40.9077 47.1516 40.0134 46.5579 39.1973C46.4188 39.0056 46.2601 38.8264 45.9535 38.791V38.7945ZM35.6734 34.7527C35.6128 34.2984 35.4274 33.9737 35.069 33.7697C35.0597 33.7643 35.0501 33.7587 35.0403 33.753L35.0233 33.7429C34.8778 33.6567 34.6976 33.5501 34.593 33.7023C34.3276 34.0854 34.4098 34.4945 34.4914 34.9006C34.5205 35.0455 34.5496 35.19 34.5627 35.3329C34.6037 35.7835 34.9514 35.764 35.3026 35.7108C35.7341 35.6451 36.3171 35.6771 36.2636 36.1792C36.2267 36.5178 36.3221 36.8289 36.4164 37.1364C36.5271 37.4976 36.6363 37.8536 36.5274 38.2427C36.4811 38.4095 36.4829 38.6526 36.7057 38.6721C36.9874 38.6969 37.0052 38.4343 36.9892 38.2356C36.8626 36.7097 36.6665 35.1962 36.2778 33.6189C36.2042 33.7575 36.1744 33.9024 36.1453 34.0437C36.0892 34.3165 36.0358 34.5762 35.6752 34.7527H35.6734ZM37.8878 30.9184C38.5296 30.8084 39.1607 30.6611 39.742 30.3595C40.1074 30.1696 40.0914 29.8769 39.9577 29.5327C39.8225 29.1878 39.5981 29.2661 39.3829 29.3412C39.3568 29.3503 39.3308 29.3594 39.3052 29.3677C38.6883 29.5682 38.0732 29.7846 37.5989 30.2548C37.5865 30.2672 37.5736 30.2797 37.5605 30.2924C37.4289 30.4198 37.2786 30.5652 37.41 30.7782C37.5086 30.9402 37.6831 30.9302 37.8481 30.9207L37.8585 30.9201L37.8754 30.9191L37.8895 30.9184H37.8878ZM30.5637 25.1448C31.3945 25.9752 32.2343 26.7932 33.386 27.1711C32.6158 26.2555 31.6424 25.6257 30.5637 25.1448ZM34.8979 31.9067C35.1136 32.1764 35.4167 32.2828 35.7127 32.3733C36.0871 32.4869 36.3153 32.2402 36.4989 31.9617L36.5063 31.9507L36.5147 31.9381C36.6067 31.8011 36.7146 31.6403 36.5916 31.4844C36.367 31.2041 36.0478 31.2963 35.784 31.3868C35.739 31.4024 35.6931 31.4173 35.6469 31.4322C35.3671 31.5227 35.0754 31.6171 34.8979 31.9049V31.9067ZM51.8869 40.1093C51.5874 41.0212 51.5998 41.7097 51.8191 42.5755C52.2649 41.7114 52.3076 41.0124 51.8869 40.1093Z" fill="white"/>
<path d="M11.3871 28.6615C9.18707 26.8606 6.1027 26.7523 3.94364 28.3847C3.89936 28.418 3.85145 28.4503 3.80298 28.4829C3.5236 28.6711 3.22544 28.8719 3.49436 29.3588C3.56745 29.4919 3.39451 29.8148 3.2608 29.9958C2.67958 30.7818 2.6885 31.6281 2.87748 32.533C3.14669 33.8158 3.26971 35.1057 2.82221 36.3832C2.43889 37.4762 1.65621 37.9074 0.541916 37.6838C0.076586 37.5898 -0.0143396 37.2881 0.00170564 36.9084C0.00285639 36.8805 0.00370517 36.8521 0.00456211 36.8233C0.0143394 36.4954 0.0252702 36.1289 0.497344 36.1224C1.37987 36.1082 1.47258 35.489 1.51537 34.8502C1.56053 34.1774 1.41945 33.5264 1.27845 32.8758C1.21905 32.6018 1.15966 32.3277 1.11422 32.0522C0.729118 29.7296 1.46188 28.5089 3.56924 27.4372C6.27386 26.0604 8.90894 26.1225 11.5975 27.3911C12.6209 27.8737 12.7564 28.076 12.2607 29.066C12.0299 29.5263 11.9199 30.0226 11.8097 30.5199C11.673 31.1365 11.536 31.7547 11.1678 32.3077C10.9267 32.6707 11.0729 33.1631 11.2079 33.6176C11.2326 33.7007 11.2569 33.7825 11.2784 33.862C11.7063 35.4446 12.4729 36.8747 13.2734 38.2924C14.3574 40.2157 14.3004 40.787 12.9097 42.5188C12.8168 42.6348 12.725 42.7519 12.6331 42.8691C12.524 43.0083 12.4148 43.1475 12.3035 43.2853C11.4442 44.3445 11.0199 45.4321 11.446 46.8729C11.815 48.1202 11.9737 49.4563 11.9434 50.8615C11.4748 50.6989 11.3687 50.3453 11.2713 50.0209C11.2561 49.9701 11.2411 49.92 11.2249 49.8714C11.1038 49.509 10.9992 49.1418 10.8945 48.7747C10.6294 47.8444 10.3643 46.9144 9.83247 46.062C9.42598 45.4091 9.7879 44.6798 10.173 44.0606C10.8327 42.9978 11.6795 42.0805 12.5745 41.2164C13.1718 40.6398 13.3126 40.182 12.7778 39.4137C11.3515 37.3662 10.4636 35.1412 10.5795 32.5472C10.6633 30.6682 10.0928 30.3719 8.32951 31.0657C8.22082 31.1087 8.11269 31.1543 8.0045 31.2C7.72935 31.3161 7.45372 31.4323 7.16708 31.5075C7.08747 31.5284 7.0004 31.5731 6.91133 31.6188C6.63134 31.7623 6.33171 31.9159 6.18293 31.3762C6.02425 30.8013 5.89054 30.2034 6.74453 29.9674C7.21024 29.8386 7.66566 29.6718 8.12102 29.5049C9.1091 29.1428 10.097 28.7808 11.1892 28.8088C11.2166 28.8088 11.2453 28.7835 11.2913 28.743C11.3174 28.7201 11.3489 28.6923 11.3889 28.6615H11.3871Z" fill="white"/>
<path d="M22.9152 39.7899C23.4144 40.4215 23.5927 41.0443 23.6194 41.6298C23.6871 43.1613 24.4217 44.4218 25.1465 45.6658C25.2615 45.863 25.3761 46.0598 25.4879 46.2572C26.3579 47.7955 27.5168 49.1422 28.8201 50.3842C29.2583 50.8013 29.6648 51.2824 30.0706 51.7626C30.2344 51.9565 30.3981 52.1502 30.5637 52.3395C30.9491 52.7807 30.6787 53.1351 30.386 53.5191C30.3184 53.6076 30.2497 53.6978 30.1875 53.7909C30.157 53.7135 30.128 53.6319 30.0993 53.5514C29.9135 53.0299 29.743 52.5515 29.289 53.5336C29.182 53.7642 28.8611 53.7128 28.6311 53.6667C28.1818 53.5762 27.8038 53.3437 27.4936 53.0102C26.7582 52.2176 26.0235 51.4245 25.2889 50.6315C24.1107 49.3596 22.9325 48.0877 21.751 46.8179C21.2197 46.2466 20.8613 45.6043 20.6135 44.852C20.3343 44.006 19.9948 43.1795 19.6161 42.2577L19.616 42.2574C19.4459 41.8432 19.2678 41.4098 19.0838 40.9467C18.6211 41.4275 18.1794 41.902 17.747 42.3665L17.7468 42.3667C16.7814 43.4037 15.8624 44.3909 14.8602 45.2867C13.3857 46.6032 12.2126 47.9108 13.1379 50.0915C11.9202 49.0091 11.7241 46.9013 12.7082 45.8828C14.459 44.0713 16.2704 42.3183 18.1977 40.6912C19.0945 39.9336 19.2674 39.9673 19.9503 40.9112C20.6973 41.9457 21.3391 43.0386 21.7706 44.2487C21.8793 44.5521 22.0095 44.8591 22.1913 45.1217C23.4716 46.978 25.0094 48.6142 26.5501 50.2535C27.0563 50.7921 27.5628 51.331 28.0606 51.8782C27.9607 51.376 27.6345 51.0017 27.3028 50.6628C26.1923 49.5259 25.2313 48.2691 24.2705 47.0127L24.2703 47.0125C23.8877 46.5121 23.5051 46.0117 23.1131 45.5191C22.8799 45.2261 22.8857 44.8957 22.8916 44.5601C22.8955 44.339 22.8994 44.1156 22.835 43.8992C22.4481 42.5897 22.5551 41.2466 22.9152 39.7917V39.7899Z" fill="white"/>
<path fill-rule="evenodd" clip-rule="evenodd" d="M32.3563 33.5335L32.3556 33.5342C32.32 33.5685 32.2834 33.6037 32.2468 33.6402L32.2485 33.6419C33.0187 33.6632 33.4787 33.3705 33.6659 32.7903C34.092 31.4755 34.9888 30.4908 35.907 29.5273C37.3975 27.9624 37.5544 27.1516 36.6897 25.1661C36.6357 25.0419 36.572 24.9205 36.5075 24.7974C36.3268 24.4528 36.1397 24.096 36.1423 23.6331C36.425 23.7497 36.595 23.9817 36.7619 24.2092C36.9581 24.4769 37.1499 24.7384 37.5151 24.7988C37.3287 24.3499 37.0468 23.9375 36.7665 23.5274C36.0574 22.4903 35.3583 21.4675 36.2386 19.9036C35.6245 20.2349 35.4915 20.6835 35.3647 21.1109C35.3171 21.2716 35.2703 21.4293 35.1992 21.5767C35.0678 21.4647 34.9396 21.3527 34.8128 21.2418L34.8126 21.2416C34.5318 20.9962 34.2576 20.7564 33.969 20.5352L33.9499 20.5205C33.3593 20.0674 33.0631 19.8401 33.0671 19.6182C33.0711 19.3948 33.379 19.1767 33.9969 18.7393L34.0065 18.7325C34.0378 18.71 34.0723 18.6868 34.1079 18.6629C34.3137 18.5249 34.557 18.3618 34.4415 18.147C34.2886 17.8589 33.9873 18.0049 33.7353 18.127C33.7111 18.1387 33.6872 18.1503 33.6641 18.1612C33.4763 18.2494 33.3018 18.394 33.1297 18.5365C32.8346 18.781 32.5467 19.0195 32.2111 18.9579C30.6546 18.6704 30.1875 19.6108 29.8256 20.7765C29.807 20.8358 29.7866 20.895 29.7661 20.9543C29.6647 21.248 29.5622 21.5447 29.6794 21.8784C30.0094 21.8371 30.2235 21.5853 30.4288 21.3439C30.6827 21.0453 30.9229 20.7628 31.3518 20.9149C31.7778 21.066 32.1517 21.3593 32.5261 21.6529C32.6969 21.7869 32.8677 21.921 33.0437 22.0416C33.1015 22.0813 33.163 22.1167 33.2244 22.152C33.2918 22.1907 33.3592 22.2295 33.4217 22.274C34.6483 23.1505 35.6824 24.1991 36.2903 25.5937C36.8252 26.8233 36.3135 27.9873 35.0637 28.4362C34.7036 28.5657 34.4379 28.7786 34.2364 29.0731C33.632 29.9532 33.1186 30.8847 32.6943 31.8641L32.6932 31.8667C32.5847 32.1198 32.4612 32.4078 32.6122 32.6288C32.8839 33.0257 32.6501 33.2507 32.3563 33.5335ZM34.6732 21.9192C33.953 21.0622 32.9653 20.6363 31.9151 20.3099C32.7067 21.0462 33.6285 21.5732 34.6732 21.9192Z" fill="white"/>
<path fill-rule="evenodd" clip-rule="evenodd" d="M46.9608 28.115C46.8165 27.5658 46.9155 27.1611 47.0061 26.7906C47.0241 26.7171 47.0417 26.6448 47.0571 26.5731C47.2369 25.7374 47.4469 24.9082 47.6568 24.0787C47.7362 23.7653 47.8155 23.4519 47.8933 23.1381C48.1981 21.9103 49.0592 21.1846 50.1967 20.8226C50.8439 20.6168 51.229 21.0941 51.3823 21.7062C51.5036 22.196 51.6694 22.3698 52.0224 21.8571C52.1026 21.74 52.2132 21.6282 52.3344 21.5554C53.2276 21.0089 53.4326 20.2016 52.9085 19.2205C52.7284 18.8833 52.7534 18.5586 53.0778 18.3706C53.4212 18.1727 53.4786 18.3804 53.5362 18.5889C53.5582 18.6684 53.5802 18.748 53.6181 18.8053C53.6503 18.8545 53.6829 18.9035 53.7155 18.9524C54.0561 19.4634 54.3893 19.9634 54.1583 20.663C54.0701 20.9311 54.3468 20.9864 54.5748 21.032C54.5957 21.0361 54.6163 21.0403 54.6361 21.0444C55.3225 21.1899 55.7629 21.6654 56.139 22.2084C56.4386 22.6395 56.3512 22.9234 55.7949 22.9944C55.7793 22.9963 55.7629 22.9993 55.7463 23.0023C55.7006 23.0107 55.6538 23.0194 55.6184 23.005C54.8329 22.669 54.0755 22.838 53.3181 23.007C52.8997 23.1004 52.4812 23.1938 52.058 23.202C51.4305 23.2126 50.8368 23.2179 50.3697 22.6466C49.997 22.1906 49.5745 22.3592 49.2732 22.7992C48.6153 23.7573 48.1054 24.7829 47.9182 25.9397C47.7952 26.6956 47.5295 27.3734 46.9608 28.1203V28.115ZM53.5681 21.5767C53.7301 21.5324 53.9117 21.5253 53.9939 21.7443C53.7906 22.2123 53.4466 22.5225 52.9958 22.6821C52.7623 22.7655 52.5662 22.5615 52.6054 22.3432C52.6963 21.8375 53.1367 21.6921 53.5681 21.5767Z" fill="white"/>
<path d="M1.6887 39.5015H1.68924C1.82629 39.5011 1.96329 39.5007 2.10015 39.5007V39.5024C2.10193 39.5202 2.10193 39.5379 2.10193 39.5557C2.28901 39.5418 2.47654 39.5302 2.66417 39.5186L2.66459 39.5186C3.1259 39.49 3.58784 39.4613 4.04526 39.3995L4.06142 39.3974L4.08193 39.3948C4.33044 39.3629 4.64075 39.3231 4.53377 38.8584C4.37688 38.1806 4.38223 37.5259 5.30754 37.3609C5.56249 37.3147 5.68907 37.0912 5.45552 36.9226C5.1524 36.7025 5.25082 36.575 5.3768 36.4118C5.41532 36.3619 5.45641 36.3086 5.48939 36.2484C6.07952 35.1732 6.48602 34.0447 5.94402 32.8222C5.92398 32.7771 5.90671 32.7234 5.88867 32.6673C5.81525 32.439 5.7291 32.171 5.39133 32.2793C5.06685 32.3822 4.87252 32.7087 4.92066 33.0582C5.04011 33.9312 4.62291 34.5876 4.13262 35.2353C3.84736 35.6114 3.57102 36.0089 3.5104 36.4897C3.36064 37.6785 2.5637 38.1824 1.5011 38.4237C1.41937 38.4421 1.33734 38.4598 1.2553 38.4774C0.990148 38.5345 0.724779 38.5916 0.46882 38.6756C0.235264 38.7519 0.0551924 38.9294 0.106897 39.2115C0.155033 39.4758 0.38324 39.4936 0.590054 39.4971C0.955786 39.5036 1.32246 39.5025 1.6887 39.5015Z" fill="white"/>
<path d="M29.3139 0.810346C30.1517 0.731476 30.9333 0.890725 31.7034 1.04761C31.9035 1.08838 32.1027 1.12898 32.302 1.16521C36.2547 1.8838 40.0682 3.0637 43.7499 4.6588C43.8083 4.68409 43.874 4.71032 43.9431 4.73792C44.3585 4.90386 44.8971 5.11899 44.7304 5.47497C44.5182 5.92743 44.0135 5.67271 43.6104 5.46925C43.5362 5.43177 43.4653 5.396 43.4004 5.36674C39.9078 3.79649 36.3509 2.41786 32.5926 1.61233C32.0403 1.49329 31.481 1.40803 30.9214 1.32271C30.6302 1.27832 30.3389 1.23391 30.0485 1.18472C30.0111 1.1784 29.973 1.17344 29.9345 1.16843C29.7138 1.13975 29.4806 1.10946 29.3121 0.810346H29.3139Z" fill="white"/>
<path d="M39.2099 7.23185L39.2142 7.23153L39.2124 7.23508L39.2099 7.23185Z" fill="white"/>
<path d="M39.5605 5.91943C39.0636 6.2547 38.6613 6.52615 39.2099 7.23185C39.0482 7.24388 38.8999 7.25433 38.7601 7.26417C38.5105 7.28176 38.2883 7.29742 38.0661 7.31669C37.779 7.33976 37.5241 7.43025 37.5205 7.77091C37.5055 9.04641 36.6596 9.3176 35.8129 9.58905C35.5489 9.67368 35.2849 9.75833 35.0459 9.87346C35.2233 9.28531 35.71 9.02594 36.184 8.77331L36.1905 8.76984C36.6808 8.50725 36.9785 8.17191 36.8715 7.57752C36.8234 7.31137 36.8323 7.02039 37.0659 6.84296C37.8806 6.22018 38.7632 5.74112 40.0575 5.54417C39.9025 5.68868 39.7263 5.80761 39.5605 5.91943Z" fill="white"/>
<path d="M36.6006 11.2584C36.5416 11.6323 36.4829 12.004 36.49 12.3841C36.4989 12.8401 34.9906 13.7485 34.5146 13.6651C34.2329 13.6154 34.0082 13.3458 34.2489 13.1932C34.8753 12.7958 35.1549 12.1811 35.4332 11.5691C35.6333 11.129 35.8328 10.6903 36.1602 10.3348L36.175 10.3186C36.2835 10.1995 36.4077 10.0632 36.7129 10.1006C36.7209 10.496 36.6606 10.8783 36.6006 11.2584Z" fill="white"/>
<path d="M13.3554 53.1711C13.4305 53.3867 13.5064 53.6046 13.4285 53.853H13.4267C13.3295 53.8594 13.2437 53.7832 13.1583 53.7073C13.009 53.5746 12.8606 53.4427 12.653 53.7554C12.464 54.041 12.3035 54.3267 12.4783 54.6496C12.6512 54.9725 12.9685 54.93 13.2609 54.8359L13.2895 54.8268C13.3195 54.8171 13.3496 54.8076 13.3798 54.798L13.3819 54.7974C13.6514 54.7119 13.923 54.6257 14.1649 54.4899C14.6088 54.2433 14.8958 53.8654 14.7407 53.3278C14.5803 52.7724 14.1363 52.4601 13.6157 52.2987C13.2823 52.194 13.2485 52.4743 13.252 52.7316C13.2549 52.8827 13.3049 53.0264 13.3554 53.1711Z" fill="white"/>
<path d="M25.183 25.1874C25.2003 25.5177 25.404 25.7641 25.608 26.011C25.8676 26.325 26.1277 26.6397 26.0049 27.1285C25.9176 27.4763 26.1832 27.4851 26.4489 27.4408C26.8429 27.3751 27.2547 27.3485 27.3617 27.8577C27.4366 28.2073 27.4009 28.6686 27.0479 28.7733C26.6396 28.8957 26.0352 28.8052 25.8641 28.4042C25.8105 28.2782 25.7548 28.1521 25.699 28.0257C25.3068 27.1379 24.9068 26.2324 25.183 25.1856V25.1874Z" fill="white"/>
<path d="M39.9719 10.97C39.2142 11.1971 38.4494 11.3798 37.5954 11.4313C38.0821 12.8436 38.1124 12.8578 39.3943 12.18C39.7045 12.015 40.004 11.8234 40.2875 11.6176L40.2952 11.6119C40.5027 11.4603 40.7633 11.2697 40.5995 10.9753C40.4755 10.7533 40.2784 10.8405 40.1071 10.9162C40.0593 10.9373 40.0136 10.9576 39.9719 10.97Z" fill="white"/>
<path d="M34.4094 15.2496C35.1653 15.2922 36.5435 16.4809 36.6344 17.1889C36.6504 17.3202 36.6291 17.51 36.5453 17.5881C36.3848 17.7371 36.1922 17.6271 36.0995 17.4763C35.7156 16.8622 35.1506 16.4502 34.5849 16.0377C34.4887 15.9676 34.3924 15.8974 34.2971 15.8262C34.1651 15.7286 33.9975 15.6027 34.0475 15.4022C34.0905 15.2276 34.2512 15.2396 34.3938 15.2502L34.4094 15.2514V15.2496Z" fill="white"/>
<path d="M27.2725 30.3808C27.4883 30.4251 27.6648 30.2779 27.745 30.0224L27.7432 30.0206C27.7369 30.0039 27.7317 29.9814 27.7262 29.9574C27.7127 29.8995 27.6972 29.8323 27.6594 29.8148C27.3981 29.6965 27.1623 29.5301 26.9266 29.3637C26.5399 29.0908 26.1532 28.8179 25.6537 28.7573C25.6273 28.7541 25.6011 28.7495 25.5751 28.745C25.4568 28.7243 25.3433 28.7045 25.2454 28.8194C25.0957 28.9968 25.1955 29.1707 25.2935 29.3038C25.7785 29.9709 26.5059 30.2264 27.2725 30.3808Z" fill="white"/>
<path d="M57.396 19.6321C57.5051 19.7957 57.4666 19.9987 57.4294 20.1953C57.368 20.519 57.31 20.825 57.9201 20.9078C58.0681 20.9273 58.0057 21.6388 57.7722 21.9546C57.5564 22.2456 57.1945 22.235 56.8718 22.1232C56.5078 21.997 56.5698 21.6906 56.6222 21.4321L56.6222 21.4319C56.6265 21.4106 56.6308 21.3896 56.6347 21.3691C56.7541 20.7641 56.9413 20.1786 57.396 19.6321Z" fill="white"/>
<path d="M36.8448 6.32309C37.4082 6.06936 37.9484 5.7837 38.5225 5.294H38.5207C38.1361 5.2111 37.8943 5.33584 37.6705 5.45125C37.6069 5.48405 37.5448 5.51609 37.4813 5.5424C37.4382 5.5603 37.3951 5.57811 37.352 5.59593L37.3518 5.59601C36.7965 5.82537 36.2386 6.05578 35.8036 6.49697C35.6503 6.65311 35.5379 6.84118 35.6734 7.04523C35.7465 7.15346 35.8999 7.26169 36.0229 7.27056C36.3007 7.29055 36.3083 7.0822 36.3156 6.88191C36.316 6.86889 36.3165 6.85584 36.3171 6.84296C36.3282 6.54718 36.549 6.45163 36.766 6.35769C36.7925 6.34625 36.8188 6.33484 36.8448 6.32309Z" fill="white"/>
<path d="M41.8368 26.9954C42.4339 26.7378 42.7671 26.9855 43.0853 27.2221L43.1169 27.2456C43.283 27.3683 43.438 27.5063 43.5929 27.6442C43.922 27.9373 44.2513 28.2304 44.6876 28.3776C44.8374 28.4273 44.9479 28.5586 44.8766 28.72C44.8035 28.8886 44.6252 28.8513 44.4915 28.8034C44.4576 28.7913 44.4228 28.7795 44.3876 28.7676L44.3874 28.7675C44.2229 28.7118 44.0513 28.6537 43.9353 28.5426C43.8899 28.4991 43.8447 28.4554 43.7995 28.4117L43.799 28.4113C43.238 27.8694 42.6746 27.3254 41.835 26.9954H41.8368Z" fill="white"/>
<path d="M31.8721 55.0825C31.8063 55.0828 31.7403 55.0831 31.6852 55.0737V55.0755C31.5564 55.1117 31.4103 55.1248 31.2627 55.1379C30.8831 55.1718 30.4937 55.2066 30.364 55.6397C30.2909 55.8863 30.8383 55.9945 31.1628 55.9999C31.6638 56.007 32.0453 55.7284 32.1754 55.2884C32.2358 55.0809 32.0549 55.0817 31.8721 55.0825Z" fill="white"/>
<path d="M41.901 7.7372C41.3537 8.32982 40.7707 8.49305 40.1378 8.51257C39.9702 8.51789 39.7616 8.47886 39.7509 8.24288C39.7437 8.05658 39.9256 8.00512 40.0522 7.97318C40.1227 7.95497 40.1932 7.936 40.2639 7.91696L40.2642 7.91689C40.7585 7.78386 41.2663 7.64719 41.901 7.7372Z" fill="white"/>
<path d="M51.7175 15.2868C52.026 15.8866 52.5697 15.8901 53.3471 15.7978H53.3453C53.2029 15.6726 53.0746 15.5586 52.9558 15.453C52.679 15.207 52.4536 15.0066 52.2203 14.8167L52.2138 14.8114C52.0649 14.6895 51.87 14.5301 51.6872 14.7155C51.5267 14.8805 51.6266 15.1112 51.7175 15.2868Z" fill="white"/>
<path d="M28.4457 29.7066C28.6624 29.1238 29.137 28.9244 29.6031 28.7286C29.6393 28.7134 29.6755 28.6981 29.7115 28.6828C29.8434 28.626 30.0199 28.6331 30.1073 28.775C30.1964 28.9188 30.118 29.0696 29.995 29.1547C29.9768 29.1674 29.9586 29.1801 29.9403 29.1928C29.5091 29.4935 29.0717 29.7985 28.4439 29.7066H28.4457Z" fill="white"/>
<path d="M40.7725 6.80215C40.9686 7.31315 41.3947 7.31847 42.0347 7.26879C41.9738 7.20867 41.916 7.14999 41.8603 7.09346C41.5297 6.75789 41.2736 6.49793 40.883 6.46148C40.7029 6.44551 40.7243 6.67795 40.7725 6.80215Z" fill="white"/>
</svg>
