<svg width="209" height="24" viewBox="0 0 209 24" fill="none" xmlns="http://www.w3.org/2000/svg">
<path d="M105.083 7.56748C112.203 0.40002 132.129 -1.73803 141.563 1.41851C144.983 2.56317 144.092 5.07234 143.015 7.52179C143.313 8.29379 142.627 8.1754 142.897 8.83107L143.211 8.85496L143.24 9.07218C142.858 9.37994 142.615 9.51133 142.435 9.96432C141.294 9.87015 140.81 11.6137 139.59 11.8521C138.71 12.6808 137.274 14.5349 136.244 14.767L135.913 14.8933C135.859 14.4698 135.525 14.275 135.286 13.879L135.508 13.806L135.972 14.212L136.207 14.0678C136.164 13.4921 136.264 13.5844 135.951 13.2721C135.6 13.3699 135.247 13.4627 134.893 13.5505C136.067 12.3177 137.987 10.9594 137.194 9.19162C137.357 9.19525 137.869 9.45974 138.054 9.54577C139.962 8.753 137.37 4.53852 135.946 4.16412C135.728 4.10665 135.723 3.86553 135.652 3.63549C131.825 1.39964 123.113 1.57672 118.929 2.81174C113.368 4.45353 110.75 6.37642 107.216 10.6764C111.18 15.0801 114.231 17.8018 119.855 20.2244C121.48 20.9244 123.476 21.5204 125.006 22.1968C117.75 22.3621 109.314 19.1852 104.993 13.1179C100.801 18.717 94.1002 21.5261 87.2855 21.987L86.9002 21.403C94.2153 18.7978 97.6171 16.3399 102.779 10.5326C102.139 9.71627 101.781 9.31192 101.038 8.58961L100.593 8.62388C99.2997 7.4555 96.7455 5.3003 95.1055 4.61139C90.9412 2.86228 86.0368 2.12179 81.5296 2.3745C77.9834 2.57322 71.5528 3.72515 71.5509 8.31473C71.5506 9.15787 72.2447 11.1619 72.0342 11.7482C72.4616 12.9278 73.1512 13.9783 73.8551 15.011L74.0396 15.4022L73.5863 15.4967C72.2796 15.2227 72.1188 14.6718 71.831 13.4977C70.4424 11.8147 64.5939 5.48587 66.2961 2.99366C67.383 1.40224 72.0008 0.431875 74.0312 0.246838C82.5659 -0.531045 92.1606 0.840371 100.072 4.20929C101.755 4.94529 103.704 6.4718 105.083 7.56748Z" fill="white"/>
<path d="M72.0371 11.7485C68.1465 3.70522 77.7742 1.81105 83.5567 1.922C90.4046 2.05321 96.1721 3.64256 101.041 8.58992L100.596 8.62419C99.3027 7.45581 96.7485 5.30062 95.1084 4.6117C90.9442 2.86259 86.0397 2.1221 81.5325 2.37482C77.9864 2.57353 71.5558 3.72547 71.5539 8.31504C71.5535 9.15818 72.2476 11.1623 72.0371 11.7485Z" fill="#1C3082"/>
<path d="M135.649 3.63574C141.21 6.33981 138.846 10.8229 136.241 14.7672L135.91 14.8936C135.856 14.47 135.522 14.2753 135.284 13.8793L135.505 13.8062L135.969 14.2123L136.204 14.0681C136.161 13.4924 136.262 13.5847 135.948 13.2724C135.597 13.3702 135.244 13.463 134.891 13.5507C136.064 12.3179 137.984 10.9597 137.191 9.19187C137.354 9.19551 137.866 9.46 138.051 9.54603C139.959 8.75326 137.368 4.53877 135.943 4.16437C135.725 4.10691 135.72 3.86578 135.649 3.63574Z" fill="#1C3082"/>
<path d="M143.015 7.52197C143.313 8.29397 142.628 8.17558 142.898 8.83126L143.211 8.85514L143.24 9.07237C142.858 9.38013 142.616 9.51151 142.435 9.9645C141.295 9.87034 140.81 11.6139 139.59 11.8523C140.782 10.4888 142.037 8.57975 143.015 7.52197Z" fill="#1C3082"/>
<path d="M71.832 13.4976C72.3335 14.0277 73.2317 14.9124 73.5874 15.4966C72.2807 15.2226 72.1199 14.6717 71.832 13.4976Z" fill="#1C3082"/>
<path d="M189.756 9.49144C190.838 8.84666 196.909 8.8998 198.254 9.27369C202.406 10.4268 201.923 15.5971 198.025 17.0482C198.988 18.3016 202.152 21.9959 200.85 23.3606C199.022 23.9335 198.396 22.5171 197.541 21.1964C196.713 19.9196 196.05 18.6188 195.112 17.4081L192.713 17.4235C192.737 20.1253 193.871 24.2084 190.058 23.3758C189.921 23.3893 189.653 23.1937 189.499 23.1054C189.019 22.3315 189.13 11.0302 189.398 9.68219L189.756 9.49144Z" fill="white"/>
<path d="M190.058 23.3756C189.921 23.3891 189.653 23.1935 189.499 23.1052C189.019 22.3313 189.13 11.03 189.398 9.68196L189.756 9.49121C189.892 12.6988 189.362 20.8332 190.058 23.3756Z" fill="#1C3082"/>
<path d="M192.703 11.522C193.65 10.6922 200.375 10.9424 197.657 14.684C196.738 15.4581 193.958 15.3141 192.719 15.3272L192.703 11.522Z" fill="#1C3082"/>
<path d="M192.703 11.522C193.65 10.6922 200.375 10.9424 197.657 14.684C197.91 10.1344 195.938 12.3296 192.866 11.5639L192.703 11.522Z" fill="#1C3082"/>
<path d="M168.471 9.02361C168.981 9.22198 169.213 9.67168 169.243 10.2071C169.473 14.3346 169.442 18.8662 169.348 22.9779C168.557 23.6966 168.047 23.9824 166.944 23.9181L166.761 23.6473L166.754 23.888L166.572 23.6865L166.653 23.5929C165.964 22.9037 165.258 21.8698 164.67 21.0666L164.465 21.2278C163.456 19.9489 162.368 18.397 161.441 17.0481C160.96 16.3498 160.905 15.8771 160.268 15.0315C160.244 16.3974 160.335 21.8353 160.176 22.728L160.041 22.8036L159.956 22.4765C159.913 22.7614 159.794 22.9435 159.66 23.1986C158.833 23.7198 157.961 23.7622 157.332 22.9258C157.036 21.5127 157.031 10.6445 157.635 9.2843C160.207 7.67176 163.051 14.5647 164.59 16.2759C164.884 16.7512 165.822 18.4505 166.181 18.6024L166.189 18.3802C166.219 16.8781 165.909 10.0589 166.657 9.26716C167.204 8.90643 167.803 9.0044 168.471 9.02361Z" fill="white"/>
<path d="M168.473 9.02393C168.984 9.22229 169.216 9.67199 169.245 10.2074C169.475 14.335 169.444 18.8666 169.351 22.9782C168.56 23.6969 168.049 23.9827 166.946 23.9185L166.763 23.6476L166.756 23.8883L166.574 23.6869L166.656 23.5932C167.995 23.6074 169.063 23.5385 168.913 21.8697C168.696 19.4713 169.484 10.7221 168.473 9.02393Z" fill="#1C3082"/>
<path d="M143.242 9.07203C144.897 9.10336 151.85 8.80668 152.634 9.35816C152.97 9.89856 152.859 10.4303 152.831 11.0939C152.544 12.0991 146.943 11.7725 145.843 11.7811C145.849 12.6132 145.883 13.6071 145.835 14.4244C147.316 14.458 154.933 13.785 151.801 17.1669C151.325 17.6814 146.889 17.6126 145.888 17.6473L145.895 20.4711C147.602 20.5004 151.131 20.4336 152.641 20.6821L152.58 20.841C153.025 21.3849 153.233 22.1448 152.909 22.7959C152.042 23.7159 143.122 23.4473 142.96 23.0234C141.978 20.4626 142.402 12.6894 142.437 9.96416C142.617 9.51118 142.859 9.37979 143.242 9.07203Z" fill="white"/>
<path d="M152.829 11.0942C152.542 12.0994 146.941 11.7728 145.841 11.7814C145.847 12.6135 145.881 13.6074 145.833 14.4247C147.314 14.4583 154.931 13.7853 151.799 17.1672C151.323 17.6817 146.887 17.6129 145.886 17.6476L145.893 20.4714C147.6 20.5007 151.129 20.4339 152.639 20.6824L152.578 20.8413C150.742 21.0045 147.318 20.9135 145.367 20.9099L145.404 17.093C146.622 17.0871 147.913 17.0568 149.125 17.1127C150.351 17.1693 153.252 17.3047 151.749 15.1936C150.567 14.4962 147.025 14.8511 145.395 14.8974C145.405 13.7163 145.397 12.5349 145.371 11.3539C147.017 11.353 151.569 11.5642 152.829 11.0942Z" fill="#1C3082"/>
<path d="M128.704 23.7367C128.533 23.9356 128.455 23.9693 128.183 23.9948C127.754 24.0347 127.074 23.8234 126.752 23.5457C126.322 23.1769 126.222 22.6831 126.173 22.1477C126.028 20.4733 125.879 10.1289 126.624 9.30118C126.72 9.19317 126.838 9.22935 126.977 9.22138C128.564 9.02112 129.587 9.13138 129.623 11.1798C129.646 12.5128 129.54 14.1488 129.44 15.4858C130.404 14.4282 131.366 13.2901 132.368 12.2765C133.914 10.7109 134.809 8.93353 137.193 9.19126C137.985 10.9591 136.066 12.3173 134.892 13.5501C134.382 14.0412 133.876 14.5386 133.379 15.0425C134.352 16.1979 138.191 21.0863 138.3 22.7196C138.325 23.0763 138.105 23.2167 137.876 23.4384C135.372 24.0739 134.904 21.7217 133.521 19.9811C132.341 19.6016 132.088 18.0206 130.513 17.9965C129.518 18.6742 130.108 21.6422 129.673 22.5802C129.301 23.1009 129.171 23.2859 128.704 23.7367Z" fill="white"/>
<path d="M128.704 23.737C128.533 23.9359 128.455 23.9696 128.183 23.995C127.754 24.035 127.074 23.8237 126.752 23.546C126.322 23.1772 126.222 22.6834 126.173 22.148C126.028 20.4736 125.879 10.1292 126.624 9.30148C126.72 9.19347 126.838 9.22964 126.977 9.22168C126.073 11.0064 126.762 19.7562 126.598 22.3072C126.52 23.5208 127.776 23.6335 128.704 23.737Z" fill="#1C3082"/>
<path d="M129.53 18.75L131.472 16.915C132.171 17.9264 132.855 18.9485 133.523 19.981C132.343 19.6016 132.09 18.0206 130.515 17.9965C129.52 18.6742 130.11 21.6422 129.675 22.5802C129.456 21.664 129.525 19.7683 129.53 18.75Z" fill="#1C3082"/>
<path d="M37.5403 8.90332C37.8437 9.28793 37.9443 9.63724 37.8925 10.1136C37.5126 13.6201 34.345 11.9624 32.2024 11.5788C31.746 11.4971 31.634 11.6449 31.36 11.8956C31.1261 12.7863 31.2068 14.563 31.2139 15.5614C32.2979 15.4496 33.803 15.2521 34.8294 15.4849C39.4332 16.5284 39.6948 20.7715 35.9378 23.1117C33.8428 23.8993 30.8805 23.8204 29.394 21.9584C27.7312 19.7646 28.1833 15.9027 28.3023 13.24C28.5186 8.38889 33.3268 9.66234 36.2618 10.1127C36.7174 9.63395 37.0392 9.33536 37.5403 8.90332Z" fill="white"/>
<path d="M32.1941 17.087C35.8485 16.6928 36.6703 19.6043 34.2797 21.5879C30.973 22.0864 29.9796 18.3968 32.1941 17.087Z" fill="#1C3082"/>
<path d="M178.798 8.95166C179.244 8.96603 180.265 9.01258 180.485 9.28555C181.808 10.9208 185.706 21.2815 185.906 22.7123C185.754 23.0955 185.723 23.262 185.276 23.4387C183.22 24.2495 182.722 21.6399 182.204 20.1588L179.865 20.1816L176.573 20.1908C176.213 21.1795 175.502 23.8476 174.107 23.6369C173.312 23.4664 172.76 22.8608 173.066 22.0104C174.529 17.9344 175.999 13.7375 177.851 9.82405C178.025 9.4564 178.458 9.15591 178.798 8.95166Z" fill="white"/>
<path d="M178.282 15.4568C178.528 14.6338 178.862 13.1663 179.288 12.503L179.488 12.4668L179.784 13.1407C180.034 14.3973 180.904 16.6951 181.385 17.9565L177.328 17.9656C177.489 17.5185 178.09 15.767 178.282 15.4568Z" fill="#1C3082"/>
<path d="M56.2362 20.6676C55.6751 14.1505 58.0821 13.6125 63.5086 11.287C64.7801 10.7419 64.8502 9.09248 67.33 9.76599C67.829 10.2164 67.7312 10.0061 67.8252 10.5581C67.1659 12.5975 61.8476 14.1972 59.8502 15.2676C61.1623 15.3846 62.4567 15.6515 63.7078 16.0635C68.7416 12.8251 73.6529 18.3526 69.2086 23.6204C68.1889 23.6021 67.1353 23.5685 66.1187 23.5702C66.5793 23.067 67.2412 22.4108 67.5334 21.8209C68.6515 19.9022 68.7265 15.9228 65.2414 17.2556C64.6406 18.2503 65.7161 21.6252 62.7226 20.6243C61.7404 19.593 62.411 18.9052 62.0781 18.0018C61.239 15.7234 58.5948 17.4553 58.9185 19.6257C59.2027 21.532 59.7351 22.183 60.9061 23.6478C59.8792 23.6176 58.7622 23.5617 57.742 23.5818L57.5119 23.6626C56.6534 22.9594 55.9055 21.8185 56.2362 20.6676Z" fill="white"/>
<path d="M57.742 23.5817L57.5119 23.6625C56.6534 22.9592 55.9055 21.8184 56.2362 20.6675C56.8154 22.0498 57.2364 22.4922 57.742 23.5817Z" fill="#1C3082"/>
<path d="M74.6607 13.0631C75.2695 11.5488 75.8473 10.3002 77.4766 9.6462C80.2823 8.52023 83.9281 9.29898 84.9887 12.4185C85.9376 15.2098 85.622 18.9839 84.5234 21.6911C83.6856 23.6784 82.7217 23.633 80.8367 23.6394C81.9929 21.2719 82.5318 19.332 82.5667 16.6896C82.5841 15.3715 82.6585 14.4587 82.2507 13.1643C81.514 10.8265 78.6349 10.0495 77.6737 12.7626C76.9068 15.5264 77.3305 19.4627 78.4328 22.1107C78.6387 22.5666 79.0471 23.1743 79.3354 23.5529C77.8487 23.6403 77.1692 23.9384 76.0048 22.932L75.9007 22.8403L75.6184 22.6789C74.3896 20.3903 74.2731 17.9561 74.04 15.4021L73.8555 15.0109C74.1549 14.4122 74.39 13.4944 74.5681 12.8419L74.6607 13.0631Z" fill="white"/>
<path d="M16.6315 18.5096C16.9107 19.6732 17.0971 20.6659 18.1651 21.2624C21.6839 23.227 22.0836 18.4125 21.9879 16.2196C21.8958 14.1055 22.2006 10.7724 19.1438 11.1249C16.9261 11.2612 18.04 13.7648 16.9192 14.7568C16.3732 15.1257 14.8819 14.8833 14.7652 14.157C14.068 9.81481 19.0913 8.46225 22.3538 9.86223C25.4279 11.1812 25.2829 18.5046 24.028 20.9302C23.4372 22.0778 22.4118 22.9414 21.1806 23.3286C19.7804 23.7585 17.9408 23.5718 16.6492 22.8837C15.8356 22.4446 15.1599 21.7882 14.6973 20.9876C14.1819 19.3642 14.1962 18.8048 14.5322 17.1154C15.492 17.0224 16.6595 16.9328 17.6263 16.9321L16.6315 18.5096Z" fill="white"/>
<path d="M5.61207 14.4309C9.61158 13.4167 6.2546 11.4717 6.04896 9.60969C7.33124 8.22788 12.5305 10.9797 8.99207 15.3457C10.0516 16.5239 10.5731 17.5999 10.4954 19.242C10.444 20.3972 9.93162 21.4837 9.07308 22.2587C7.02279 24.1058 2.6269 24.0817 0.986144 21.9135C-0.571353 19.8554 -0.430455 17.2275 2.47008 16.6009C3.01619 16.706 3.27825 16.6433 3.53218 17.0003C2.77195 19.13 2.20282 21.6196 5.31626 21.5855C5.90114 21.5791 6.47096 21.4707 6.87877 21.005C8.90501 18.6898 6.93572 17.2312 5.63146 15.337C5.62419 14.9962 5.61761 14.6941 5.61207 14.4309Z" fill="white"/>
<path d="M44.7908 9.50729L47.4871 9.50244C47.3949 9.75066 47.3059 10.0001 47.2206 10.2507C45.9244 14.0896 54.8401 13.2198 52.2252 20.3201C51.7717 21.5769 50.823 22.593 49.6003 23.1317C46.5263 24.4795 43.4676 23.0976 42.2384 20.0151C42.0696 16.7243 43.2505 16.8101 46.0693 16.7274C44.939 17.9077 44.1006 19.3889 45.5405 20.8169C46.0323 21.3029 46.6963 21.5747 47.3876 21.5726C49.14 21.5605 49.985 19.845 49.868 18.2951C49.6496 15.711 46.9632 14.9282 45.3115 13.3955C44.1478 12.3157 43.6545 10.8135 44.7908 9.50729Z" fill="white"/>
<path d="M206.564 8.93994C206.834 8.9505 207.182 8.96192 207.447 9.00017C207.748 9.04241 208.018 9.2091 208.191 9.45991C208.71 10.225 208.426 21.1863 208.336 22.897C208.322 23.1502 207.569 23.5466 207.301 23.6953C206.733 23.5994 206.124 23.5487 205.74 23.0637C205.418 22.6573 205.319 10.8234 205.593 9.74587C205.702 9.31434 206.207 9.14298 206.564 8.93994Z" fill="white"/>
<path d="M87.2853 21.9868C86.878 22.1035 86.3953 22.1052 86.0391 21.888C86.27 21.5065 86.3852 21.5732 86.9 21.4028L87.2853 21.9868Z" fill="white"/>
</svg>
