<svg width="26" height="24" viewBox="0 0 26 24" fill="none" xmlns="http://www.w3.org/2000/svg">
<path d="M15.4449 0C15.5241 0.0154562 15.6032 0.0325739 15.6794 0.0587717C16.8378 0.456879 17.3104 3.50413 17.466 4.56656C17.5169 4.91489 17.4823 5.40883 17.6459 5.72289C17.672 5.77294 17.7605 5.87363 17.8163 5.88745C18.0734 5.95098 18.7625 5.74884 19.0486 5.69743C20.2327 5.48457 22.2225 5.18077 23.3679 5.56421C23.6333 5.6531 23.919 5.79944 24.0389 6.06132C24.125 6.24948 24.1028 6.45107 24.0199 6.63581C23.465 7.87127 20.9143 9.35992 19.6905 9.98825C19.3812 10.147 19.065 10.3228 18.7379 10.4432C18.6508 10.4753 18.528 10.5053 18.4803 10.5853C18.5443 10.6301 18.5723 10.6132 18.6491 10.6044C18.9281 10.5723 19.2121 10.486 19.4886 10.432C19.9004 10.3515 20.3179 10.3025 20.7354 10.2601C21.8606 10.1457 24.5943 9.97051 25.4777 10.7043C25.6024 10.8078 25.7046 10.9415 25.7132 11.1064C25.7772 12.3253 22.9722 13.6976 21.9943 14.1703C21.6643 14.3297 20.967 14.5641 20.7409 14.8296C20.6983 14.8796 20.6915 14.9156 20.7028 14.9775C20.7617 15.302 21.1418 15.8508 21.3102 16.1539C21.9015 17.2193 22.5953 18.5637 22.7174 19.7816C22.7489 20.0952 22.7561 20.4974 22.5325 20.7489C22.4063 20.8903 22.2238 20.971 22.0338 20.9839C20.8639 21.063 18.4157 19.0599 17.5827 18.2824C17.1257 17.8555 16.7215 17.3512 16.2467 16.9483C16.2386 16.9412 16.2305 16.9341 16.2221 16.9272C16.541 17.5167 16.9328 18.131 17.2134 18.7521C17.7087 19.8486 18.792 22.4714 18.3665 23.6282C18.2552 23.7883 18.136 23.9031 17.943 23.9637C16.8626 24.3034 14.6772 22.1661 13.977 21.4644C13.8162 21.303 13.11 20.4916 12.9216 20.4447C12.8238 20.4205 12.6796 20.495 12.6084 20.5534C12.3203 20.7905 12.0764 21.1122 11.8126 21.3782C10.9664 22.2318 9.68104 23.4723 8.53766 23.8922C8.26188 23.9933 7.91948 24.0532 7.64363 23.922C7.46932 23.8391 7.36159 23.6868 7.30135 23.5106C6.91038 22.3673 8.09775 19.5702 8.61383 18.5165C8.87549 17.9824 9.18864 17.4803 9.46828 16.9561C9.199 17.155 8.66524 17.7471 8.38832 18.015C7.74866 18.6337 7.06344 19.2057 6.33816 19.7267C5.82246 20.096 3.61315 21.587 3.17046 20.7038C2.53867 19.4432 3.88747 17.2226 4.45989 16.0471C4.62847 15.7011 4.90244 15.3815 5.00814 15.0093C5.03062 14.9284 5.00121 14.7893 4.92144 14.7385C4.56831 14.5136 4.16367 14.3693 3.78335 14.1787C2.55086 13.5487 1.07031 12.8759 0.213237 11.7646C-0.312647 11.0827 0.213456 10.5434 0.930367 10.3854C2.94129 9.94244 5.10079 10.1591 7.09638 10.5858C7.16842 10.6012 7.13478 10.6056 7.21566 10.5936L7.22117 10.5525C7.17304 10.4906 6.76229 10.3284 6.63183 10.262C6.02097 9.95125 5.38399 9.67829 4.79816 9.29964C3.82889 8.67309 2.04112 7.57874 1.65 6.47615C1.59985 6.33481 1.67262 6.05946 1.76426 5.95455C2.62033 4.97526 5.45294 5.49641 6.6188 5.67343C6.99863 5.73109 7.5363 5.90084 7.90723 5.88452C8.03331 5.84911 8.12607 5.7322 8.14477 5.60976C8.34894 4.27402 8.67863 0.449692 10.1894 0.0161622C10.3263 0.00844406 10.4452 0.0347894 10.5628 0.105299C11.5864 0.719432 12.3904 3.7235 12.5874 4.85552C12.655 5.24428 12.7223 5.63598 12.7703 6.02753C12.791 6.197 12.7749 6.40913 12.8239 6.5697C12.8363 6.61031 12.831 6.5977 12.8725 6.61769C12.9275 6.55152 13.0027 5.72447 13.0264 5.55393C13.205 4.26139 14.1005 0.410634 15.4068 0.0112646L15.4449 0ZM12.8565 7.81517C12.7991 8.01551 12.7561 8.38314 12.7192 8.59046C12.3615 10.5991 11.0913 11.352 9.07288 11.0202C8.96197 11.0019 8.55896 10.8958 8.47702 10.9546C8.56152 11.055 8.95147 11.2033 9.09042 11.2807C10.1694 11.8819 11.0422 12.625 10.892 13.9338C10.7791 14.9172 10.3985 15.3215 10.0882 16.099C10.96 15.3481 11.6584 14.4371 12.9848 14.4716C13.9207 14.5753 14.4446 14.9972 15.1327 15.6196C15.3024 15.7729 15.5153 16.0222 15.6939 16.147C14.5365 14.0095 14.2545 12.6027 16.6712 11.2949C16.8196 11.2145 17.1992 11.0689 17.273 10.9487C17.2284 10.9195 16.9153 10.9844 16.8511 10.9957C14.6738 11.3777 13.4705 10.7475 13.0344 8.57185C13.001 8.40528 12.9718 7.89629 12.8565 7.81517Z" fill="white"/>
</svg>
