<svg width="44" height="44" viewBox="0 0 44 44" fill="none" xmlns="http://www.w3.org/2000/svg">
<rect width="44" height="44" rx="8" fill="#1E1145"/>
<g clip-path="url(#clip0_143_1226)">
<path d="M9.98902 24.5592C9.66403 23.3894 9.49956 22.1819 9.5 20.9689C9.5 15.4111 13.0398 10.3293 18.3091 8.3252L18.9999 10.0884C14.4643 11.8138 11.418 16.186 11.418 20.969C11.4173 22.0127 11.5585 23.0518 11.8378 24.0585L9.98902 24.5592Z" fill="#69D3A7"/>
<path d="M33.8082 15.6C31.7578 11.7182 27.7214 9.30631 23.2772 9.30631C21.7024 9.30631 20.1719 9.6053 18.7312 10.193L17.9961 8.44715C19.671 7.76386 21.4477 7.41553 23.2772 7.41553C28.4402 7.41553 33.1276 10.2163 35.5096 14.7264L33.8082 15.6Z" fill="url(#paint0_linear_143_1226)"/>
<path d="M24.7545 31.1271L24.2876 32.2417C24.1947 32.4622 23.9825 32.6117 23.744 32.6218C23.5849 32.6281 23.4258 32.6315 23.2667 32.632C17.7705 32.6291 12.9079 28.8082 11.7028 23.5435L9.83203 23.9599C10.5082 26.913 12.2052 29.5932 14.6108 31.5088C17.0443 33.446 20.1098 34.5156 23.246 34.5213H23.274C23.4582 34.5213 23.6408 34.517 23.8234 34.5098C24.8075 34.4691 25.6869 33.8612 26.0626 32.96L26.6723 31.503L24.7545 31.1271Z" fill="url(#paint1_linear_143_1226)"/>
<path d="M25.516 16.4925L28.1956 23.1345L30.8574 16.4925H32.9286L26.3247 32.3275L24.4082 31.9516L27.082 25.5579L23.3241 16.4925H25.516ZM19.1583 16.3213C21.1174 16.3213 22.7834 17.4009 23.5067 19.138L23.5465 19.2324L21.6787 19.8578L21.6418 19.778C21.1764 18.7578 20.2705 18.1729 19.1581 18.1729C18.3833 18.1729 17.7278 18.44 17.2109 18.9683C16.6804 19.5255 16.4212 20.1813 16.4212 20.9738C16.4212 21.7603 16.6863 22.4292 17.2107 22.9617C17.7293 23.4871 18.3833 23.7541 19.1583 23.7541C20.2955 23.7541 21.2235 23.1548 21.6403 22.152L21.6758 22.0694L23.5465 22.6962L23.5067 22.7906C22.7834 24.5261 21.1174 25.6059 19.1583 25.6059C17.7808 25.6059 16.6613 25.1704 15.7362 24.2765C14.817 23.3884 14.3516 22.2769 14.3516 20.9722C14.3516 19.6561 14.817 18.5387 15.7362 17.6506C16.6613 16.7568 17.7808 16.3213 19.1583 16.3213ZM46.7387 17.5576V16.4924H44.7205V25.4329H46.7387V20.389C46.7387 19.5806 47.0686 18.9624 47.7196 18.5517C48.3665 18.1439 49.1428 18.0685 50.0929 18.324L50.2152 18.3573V16.4448L50.1401 16.4273C48.8643 16.1269 47.5842 16.5592 46.7387 17.5576ZM55.4505 16.3214C54.1202 16.3214 52.9919 16.7683 52.0963 17.6506C51.1888 18.5445 50.7293 19.6618 50.7293 20.9722C50.7293 22.2769 51.1948 23.3884 52.114 24.2765C53.0391 25.1704 54.1586 25.6058 55.5361 25.6058C57.4024 25.6058 59.0065 24.6713 59.8286 23.1054L59.8757 23.0154L58.1684 22.2696L58.1271 22.3494C57.6321 23.2926 56.6821 23.8557 55.5889 23.8557C54.169 23.8557 53.0818 23.001 52.7871 21.6673H60.1084L60.1173 21.5818C60.2763 20.1393 59.8993 18.8885 58.9992 17.8624C58.1035 16.8394 56.9089 16.3214 55.4505 16.3214ZM52.8475 20.0711C53.2056 18.8505 54.2161 18.0699 55.4505 18.0699C56.7189 18.0699 57.7294 18.8506 58.0565 20.0709L52.8475 20.0711ZM65.5088 20.1189C64.4085 19.9157 63.4584 19.7386 63.4584 18.9841C63.4584 18.3848 64.105 17.9669 65.0301 17.9669C66.051 17.9669 66.6108 18.3992 66.7418 19.2888L66.7567 19.389L68.7745 18.9724L68.7602 18.8825C68.4887 17.3022 67.0599 16.3198 65.0317 16.3198C64.0137 16.3198 63.1519 16.5796 62.4713 17.0918C61.7761 17.6011 61.4239 18.2657 61.4239 19.0698C61.4239 20.2334 62.1724 21.107 63.4289 21.406C63.7544 21.4815 64.0992 21.5425 64.432 21.6034C65.6827 21.8284 66.8641 22.0417 66.8641 22.8717C66.8641 23.5117 66.1099 23.9571 65.0317 23.9571C63.9341 23.9571 63.3288 23.5247 63.18 22.6337L63.1637 22.535L61.1471 22.9515L61.1633 23.0428C61.4564 24.6465 62.9015 25.6042 65.0301 25.6042C66.1114 25.6042 67.0382 25.3387 67.7804 24.8163C68.5231 24.2996 68.8981 23.6335 68.8981 22.8368C68.8981 20.7473 67.0203 20.3989 65.5088 20.1189ZM74.2515 20.1189C73.1514 19.9157 72.2013 19.7386 72.2013 18.9841C72.2013 18.3848 72.8479 17.9669 73.7727 17.9669C74.7939 17.9669 75.3533 18.3992 75.4844 19.2888L75.4995 19.389L77.5175 18.9724L77.5026 18.8825C77.2318 17.3022 75.8029 16.3198 73.7745 16.3198C72.7562 16.3198 71.8944 16.5796 71.2141 17.0918C70.5189 17.6011 70.1666 18.2657 70.1666 19.0698C70.1666 20.2334 70.9152 21.107 72.1716 21.406C72.4975 21.4815 72.8417 21.5425 73.175 21.6034C74.4256 21.8284 75.607 22.0417 75.607 22.8717C75.607 23.5117 74.8528 23.9571 73.7745 23.9571C72.6766 23.9571 72.0714 23.5247 71.9225 22.6337L71.9065 22.535L69.89 22.9515L69.906 23.0428C70.1993 24.6465 71.6442 25.6042 73.7727 25.6042C74.854 25.6042 75.7806 25.3387 76.5233 24.8163C77.2656 24.2996 77.6412 23.6335 77.6412 22.8368C77.6412 20.7473 75.7629 20.3989 74.2515 20.1189Z" fill="white"/>
</g>
<defs>
<linearGradient id="paint0_linear_143_1226" x1="402.716" y1="305.077" x2="1007.06" y2="960.124" gradientUnits="userSpaceOnUse">
<stop offset="0.0939" stop-color="#58D09E"/>
<stop offset="0.9883" stop-color="#58D09E" stop-opacity="0"/>
</linearGradient>
<linearGradient id="paint1_linear_143_1226" x1="-38.4155" y1="489.555" x2="1881.86" y2="1007.87" gradientUnits="userSpaceOnUse">
<stop offset="0.0774" stop-color="#58D09E"/>
<stop offset="0.7617" stop-color="#1B1E2E"/>
</linearGradient>
<clipPath id="clip0_143_1226">
<rect width="25" height="28" fill="white" transform="translate(9.5 7)"/>
</clipPath>
</defs>
</svg>
