<svg width="44" height="44" viewBox="0 0 44 44" fill="none" xmlns="http://www.w3.org/2000/svg">
<rect width="44" height="44" rx="8" fill="#2B2E3A"/>
<path d="M18.2316 14.0825C14.602 13.4215 11.7322 14.1134 10.5884 16.0944C9.73492 17.5728 9.97889 19.5328 11.1802 21.6279C11.2039 21.6714 11.2361 21.7097 11.2748 21.7406C11.3135 21.7715 11.3581 21.7944 11.4058 21.8079C11.4534 21.8214 11.5033 21.8252 11.5525 21.8191C11.6017 21.8131 11.6492 21.7973 11.6922 21.7726C11.7352 21.7479 11.7728 21.715 11.8029 21.6756C11.833 21.6362 11.8549 21.5912 11.8673 21.5432C11.8798 21.4952 11.8825 21.4452 11.8754 21.3962C11.8683 21.3472 11.8514 21.3 11.8258 21.2576C10.7439 19.3703 10.5333 17.6788 11.2331 16.4667C12.1833 14.821 14.743 14.2038 18.0982 14.8148C18.1946 14.8309 18.2934 14.8084 18.3734 14.7522C18.4533 14.696 18.508 14.6105 18.5255 14.5144C18.543 14.4182 18.522 14.319 18.467 14.2382C18.412 14.1574 18.3275 14.1015 18.2316 14.0825ZM13.0676 24.1745C14.5352 25.7872 16.4419 27.3 18.6164 28.5553C23.8814 31.5952 29.4866 32.4076 32.249 30.5241C32.2903 30.497 32.3258 30.4619 32.3534 30.4209C32.381 30.3799 32.4002 30.3338 32.4098 30.2853C32.4194 30.2368 32.4192 30.1869 32.4094 30.1385C32.3995 30.09 32.38 30.0441 32.3522 30.0032C32.3243 29.9624 32.2886 29.9275 32.2471 29.9006C32.2057 29.8737 32.1592 29.8554 32.1106 29.8466C32.0619 29.8379 32.012 29.8389 31.9638 29.8496C31.9155 29.8604 31.8699 29.8806 31.8296 29.9092C29.3572 31.5949 24.0329 30.8231 18.9886 27.9108C16.8791 26.6929 15.0328 25.228 13.6182 23.6734C13.5854 23.637 13.5457 23.6075 13.5014 23.5865C13.4571 23.5655 13.4091 23.5535 13.3602 23.5511C13.3112 23.5487 13.2623 23.556 13.2162 23.5725C13.17 23.5891 13.1276 23.6146 13.0914 23.6476C13.0552 23.6805 13.0258 23.7204 13.005 23.7647C12.9841 23.8091 12.9723 23.8571 12.9701 23.9061C12.9679 23.955 12.9753 24.0039 12.9921 24.05C13.0088 24.0961 13.0345 24.1384 13.0676 24.1745Z" fill="#9FEAF9"/>
<path d="M31.3641 23.7217C33.7407 20.9141 34.5705 18.0903 33.4291 16.1134C32.5893 14.6586 30.8138 13.8906 28.4541 13.8599C28.3563 13.86 28.2625 13.8986 28.1929 13.9674C28.1234 14.0361 28.0837 14.1295 28.0824 14.2273C28.0811 14.3251 28.1184 14.4194 28.1862 14.49C28.2539 14.5605 28.3467 14.6015 28.4444 14.6042C30.5666 14.6318 32.0963 15.2935 32.7845 16.4856C33.7325 18.1277 32.9925 20.6458 30.7959 23.2407C30.7637 23.2779 30.7392 23.3212 30.7238 23.3679C30.7084 23.4147 30.7024 23.4641 30.7062 23.5131C30.71 23.5622 30.7235 23.6101 30.7459 23.6539C30.7684 23.6977 30.7992 23.7367 30.8368 23.7685C30.8744 23.8003 30.9179 23.8243 30.9649 23.8392C31.0118 23.8541 31.0612 23.8595 31.1103 23.8552C31.1593 23.8508 31.207 23.8368 31.2506 23.8139C31.2941 23.7909 31.3327 23.7596 31.3641 23.7217ZM25.2564 14.2064C23.1075 14.6669 20.8202 15.5671 18.6237 16.8352C13.1885 19.9732 9.64297 24.6004 10.1354 27.9556C10.1419 28.0044 10.1581 28.0514 10.183 28.0939C10.2079 28.1365 10.241 28.1736 10.2803 28.2033C10.3197 28.2329 10.3645 28.2544 10.4122 28.2666C10.46 28.2788 10.5096 28.2814 10.5584 28.2742C10.6071 28.2671 10.654 28.2503 10.6962 28.2249C10.7384 28.1995 10.7751 28.166 10.8043 28.1263C10.8335 28.0866 10.8545 28.0415 10.8661 27.9936C10.8777 27.9457 10.8796 27.896 10.8719 27.8474C10.4346 24.8684 13.7955 20.4824 18.9959 17.4799C21.1267 16.2496 23.3414 15.378 25.4123 14.9343C25.4607 14.9247 25.5068 14.9056 25.5478 14.8781C25.5888 14.8505 25.6239 14.8151 25.6511 14.7739C25.6783 14.7326 25.697 14.6864 25.7061 14.6378C25.7152 14.5893 25.7146 14.5394 25.7043 14.4911C25.6939 14.4428 25.6741 14.3971 25.6458 14.3565C25.6176 14.316 25.5816 14.2814 25.54 14.2549C25.4983 14.2284 25.4517 14.2105 25.403 14.2022C25.3543 14.1938 25.3045 14.1953 25.2564 14.2064Z" fill="#9FEAF9"/>
<path d="M16.4502 30.2816C17.693 33.7514 19.7258 35.8878 22.0117 35.8878C23.6789 35.8878 25.2213 34.7513 26.4241 32.7505C26.4501 32.7086 26.4676 32.6619 26.4754 32.6132C26.4832 32.5645 26.4813 32.5147 26.4697 32.4668C26.4582 32.4188 26.4372 32.3736 26.408 32.3338C26.3788 32.2941 26.342 32.2605 26.2997 32.2351C26.2574 32.2097 26.2105 32.1929 26.1617 32.1858C26.1128 32.1786 26.0631 32.1813 26.0153 32.1936C25.9675 32.2058 25.9226 32.2275 25.8833 32.2572C25.844 32.287 25.8109 32.3243 25.7861 32.367C24.7051 34.1651 23.3774 35.1433 22.0117 35.1433C20.1128 35.1433 18.2997 33.2379 17.1511 30.0308C17.1354 29.9839 17.1105 29.9405 17.0778 29.9033C17.0451 29.8661 17.0053 29.8358 16.9607 29.8142C16.9162 29.7926 16.8678 29.78 16.8183 29.7774C16.7689 29.7747 16.7194 29.7819 16.6728 29.7986C16.6261 29.8153 16.5833 29.8411 16.5468 29.8745C16.5103 29.908 16.4808 29.9484 16.4601 29.9934C16.4394 30.0384 16.4278 30.087 16.4262 30.1365C16.4245 30.186 16.4327 30.2354 16.4504 30.2816H16.4502ZM27.8004 29.6029C28.4438 27.5473 28.7893 25.176 28.7893 22.7049C28.7893 16.5388 26.6311 11.2234 23.5572 9.85849C23.4674 9.82088 23.3664 9.81994 23.2759 9.85589C23.1855 9.89183 23.1127 9.9618 23.0732 10.0508C23.0336 10.1398 23.0306 10.2407 23.0646 10.3319C23.0986 10.4231 23.167 10.4974 23.2551 10.5388C25.9967 11.7562 28.0448 16.8007 28.0448 22.7049C28.0448 25.1023 27.7102 27.3987 27.0901 29.3806C27.0747 29.4274 27.0688 29.4769 27.0727 29.5261C27.0765 29.5752 27.0902 29.6232 27.1127 29.667C27.1353 29.7109 27.1663 29.7498 27.2041 29.7816C27.2418 29.8134 27.2855 29.8373 27.3326 29.852C27.3797 29.8668 27.4292 29.872 27.4783 29.8674C27.5274 29.8629 27.5751 29.8486 27.6187 29.8254C27.6622 29.8022 27.7007 29.7706 27.7319 29.7324C27.7632 29.6942 27.7865 29.6502 27.8005 29.6029H27.8004ZM34.8102 29.2383C34.8102 28.2545 34.0127 27.457 33.0289 27.457C32.045 27.457 31.2475 28.2545 31.2475 29.2383C31.2475 30.2222 32.045 31.0197 33.0289 31.0197C34.0127 31.0197 34.8102 30.2222 34.8102 29.2383ZM34.0659 29.2383C34.0659 29.3745 34.0391 29.5094 33.9869 29.6352C33.9348 29.761 33.8585 29.8753 33.7622 29.9716C33.6659 30.0679 33.5515 30.1443 33.4257 30.1964C33.2999 30.2485 33.1651 30.2754 33.0289 30.2754C32.8927 30.2754 32.7578 30.2485 32.632 30.1964C32.5062 30.1443 32.3919 30.0679 32.2956 29.9716C32.1993 29.8753 32.1229 29.761 32.0708 29.6352C32.0187 29.5094 31.9919 29.3745 31.9919 29.2383C31.9919 28.9633 32.1011 28.6995 32.2956 28.5051C32.4901 28.3106 32.7538 28.2013 33.0289 28.2013C33.3039 28.2013 33.5677 28.3106 33.7622 28.5051C33.9566 28.6995 34.0659 28.9633 34.0659 29.2383ZM10.9688 31.0197C11.9528 31.0197 12.7503 30.2222 12.7503 29.2383C12.7503 28.2545 11.9527 27.457 10.9688 27.457C9.98515 27.457 9.1875 28.2545 9.1875 29.2383C9.1875 30.2222 9.98515 31.0197 10.9688 31.0197ZM10.9688 30.2753C10.6938 30.2753 10.43 30.1661 10.2356 29.9716C10.0411 29.7771 9.93183 29.5134 9.93183 29.2383C9.93183 28.9633 10.0411 28.6995 10.2356 28.5051C10.43 28.3106 10.6938 28.2013 10.9688 28.2013C11.2439 28.2013 11.5076 28.3106 11.7021 28.5051C11.8966 28.6995 12.0059 28.9633 12.0059 29.2383C12.0059 29.5134 11.8966 29.7771 11.7021 29.9716C11.5076 30.1661 11.2439 30.2753 10.9688 30.2753Z" fill="#9FEAF9"/>
<path d="M22.0118 11.6755C22.9956 11.6755 23.7932 10.878 23.7932 9.89414C23.7932 8.9103 22.9956 8.11279 22.0118 8.11279C21.028 8.11279 20.2305 8.9103 20.2305 9.89414C20.2305 10.878 21.028 11.6755 22.0118 11.6755ZM22.0118 10.9311C21.7368 10.9311 21.473 10.8219 21.2785 10.6274C21.0841 10.4329 20.9748 10.1692 20.9748 9.89414C20.9748 9.6191 21.0841 9.35534 21.2785 9.16086C21.473 8.96638 21.7368 8.85713 22.0118 8.85713C22.2868 8.85713 22.5506 8.96638 22.7451 9.16086C22.9396 9.35534 23.0488 9.6191 23.0488 9.89414C23.0488 10.1692 22.9396 10.4329 22.7451 10.6274C22.5506 10.8219 22.2868 10.9311 22.0118 10.9311ZM22.2838 23.9646C21.5881 24.1149 20.9026 23.6727 20.752 22.977C20.6799 22.6429 20.7435 22.2938 20.9287 22.0065C21.1139 21.7192 21.4056 21.5173 21.7397 21.445C22.4354 21.2947 23.1208 21.7369 23.2716 22.4326C23.4219 23.1284 22.9797 23.814 22.2838 23.9646Z" fill="#9FEAF9"/>
</svg>
