<svg width="44" height="44" viewBox="0 0 44 44" fill="none" xmlns="http://www.w3.org/2000/svg">
<rect width="44" height="44" rx="8" fill="#35BEE9"/>
<path d="M35.4721 20.7529L23.2463 8.52808C22.5428 7.82397 21.401 7.82397 20.6967 8.52808L18.1581 11.067L21.3782 14.2872C22.1268 14.0344 22.9848 14.2039 23.5812 14.8005C24.1808 15.4008 24.349 16.2662 24.0899 17.0173L27.1935 20.121C27.9444 19.8622 28.8107 20.0294 29.4102 20.63C30.2485 21.468 30.2485 22.826 29.4102 23.6642C28.5719 24.5027 27.214 24.5027 26.3752 23.6642C25.7449 23.0334 25.5891 22.1073 25.9083 21.3307L23.0139 18.4362L23.0136 26.0531C23.218 26.1543 23.4108 26.2893 23.5811 26.4589C24.4191 27.2968 24.4191 28.6544 23.5811 29.4938C22.7429 30.3316 21.3844 30.3316 20.5471 29.4938C19.709 28.6545 19.709 27.2969 20.5471 26.4589C20.7542 26.2521 20.9939 26.0956 21.2496 25.9907V18.303C20.9938 18.1985 20.7544 18.0432 20.5469 17.8348C19.9121 17.2004 19.7592 16.2687 20.0848 15.4891L16.9104 12.3141L8.52823 20.6964C7.82392 21.401 7.82392 22.5429 8.52823 23.2471L20.7533 35.4719C21.4571 36.176 22.5986 36.176 23.3034 35.4719L35.4719 23.3049C36.176 22.6004 36.176 21.4582 35.4719 20.7539" fill="#F05133"/>
</svg>
