<svg width="44" height="44" viewBox="0 0 44 44" fill="none" xmlns="http://www.w3.org/2000/svg">
<rect width="44" height="44" rx="8" fill="#1E1145"/>
<path d="M33.2712 14.2976L23.1821 8.43929C22.5458 8.07688 21.7173 8.07688 21.076 8.43929L10.8791 14.2976C10.2225 14.6753 9.75781 15.3852 9.75781 16.1446V27.8456C9.75781 28.605 10.2346 29.3151 10.8913 29.6949L13.5853 31.2251C14.873 31.8593 15.328 31.8593 15.914 31.8593C17.8205 31.8593 18.9096 30.7064 18.9096 28.6956V17.1438C18.9096 16.9806 18.8247 16.7379 18.6645 16.7379H17.378C17.2151 16.7379 16.8504 16.9806 16.8504 17.1435V28.6953C16.8504 29.5867 16.0442 30.4737 14.5373 29.7203L11.7536 28.1158C11.6566 28.0632 11.5882 27.9572 11.5882 27.8456V16.1446C11.5882 16.0343 11.7151 15.9236 11.8128 15.8671L21.9768 10.0189C22.0717 9.96511 22.2113 9.96511 22.306 10.0189L32.3459 15.8657C32.442 15.9236 32.4082 16.0309 32.4082 16.1446V27.8456C32.4082 27.9572 32.45 28.0659 32.3551 28.1197L22.2685 33.9713C22.182 34.0232 22.0747 34.0232 21.98 33.9713L19.393 32.4272C19.315 32.3819 19.2223 32.3656 19.1475 32.4075C18.4277 32.8154 18.295 32.8697 17.6199 33.1037C17.4538 33.1616 17.2087 33.2621 17.7137 33.5451L21.0994 35.5479C21.4236 35.7355 21.7919 35.833 22.1626 35.833C22.5382 35.833 22.9061 35.7355 23.2303 35.5479L33.271 29.6949C33.9276 29.3124 34.2388 28.605 34.2388 27.8456V16.1446C34.2388 15.3852 33.9276 14.6771 33.2712 14.2976ZM25.2952 25.9914C22.6124 25.9914 22.0214 25.2513 21.8244 23.9172C21.8015 23.7735 21.6796 23.6017 21.5334 23.6017H20.2222C20.0599 23.6017 19.9295 23.7985 19.9295 23.96C19.9295 25.6682 20.8582 27.7378 25.2954 27.7378C28.5075 27.7378 30.349 26.4898 30.349 24.281C30.349 22.091 28.8694 21.5162 25.7544 21.1039C22.6057 20.6878 22.2859 20.4775 22.2859 19.7399C22.2859 19.1317 22.5568 18.3207 24.8882 18.3207C26.9713 18.3207 27.7392 18.7677 28.0551 20.1718C28.0821 20.3039 28.2027 20.3986 28.3388 20.3986H29.6553C29.7363 20.3986 29.8137 20.3659 29.8704 20.308C29.9253 20.2457 29.9544 20.1677 29.947 20.084C29.7432 17.6661 28.1368 16.5393 24.8879 16.5393C21.9981 16.5393 20.2741 17.7597 20.2741 19.8053C20.2741 22.0242 21.9894 22.6373 24.7635 22.9116C28.0821 23.237 28.3402 23.722 28.3402 24.3748C28.3402 25.5085 27.4301 25.9914 25.2952 25.9914Z" fill="#83CD29"/>
</svg>
