<svg width="44" height="44" viewBox="0 0 44 44" fill="none" xmlns="http://www.w3.org/2000/svg">
<rect width="44" height="44" rx="8" fill="#FFBB00"/>
<path d="M34.297 30.1039L22.5239 36.9674V31.623L29.8594 27.4635L34.297 30.1039ZM35.1034 29.3524V15.0012L30.7971 17.566V26.7915L35.1034 29.3524ZM9.71664 30.1039L21.4897 36.9674V31.623L14.1504 27.4635L9.71664 30.1039ZM8.91016 29.3524V15.0012L13.2165 17.566V26.7915L8.91016 29.3524ZM9.41565 14.0707L21.4897 7.03223V12.1977L13.7529 16.5838L13.6912 16.6196L9.41565 14.0707ZM34.5979 14.0707L22.5239 7.03223V12.1977L30.2607 16.5798L30.3224 16.6156L34.5979 14.0707Z" fill="#3C4346"/>
<path d="M21.4615 30.7307L13.8945 26.5842V18.3754L21.4615 22.7269V30.7307ZM22.5425 30.7307L30.1094 26.5882V18.3754L22.5425 22.7269V30.7307ZM14.4068 17.4272L22.002 13.2686L29.5972 17.4272L22.002 21.7947L14.4068 17.4272Z" fill="white"/>
</svg>
