<svg width="44" height="44" viewBox="0 0 44 44" fill="none" xmlns="http://www.w3.org/2000/svg">
<rect width="44" height="44" rx="8" fill="#2B2E3A"/>
<g clip-path="url(#clip0_143_1201)">
<path d="M22.0007 24.7559C23.5069 24.7559 24.728 23.519 24.728 21.9932C24.728 20.4674 23.5069 19.2305 22.0007 19.2305C20.4945 19.2305 19.2734 20.4674 19.2734 21.9932C19.2734 23.519 20.4945 24.7559 22.0007 24.7559Z" fill="#00D8FF"/>
<path d="M21.9996 28.209C29.5308 28.209 35.636 25.426 35.636 21.9929C35.636 18.5599 29.5308 15.7769 21.9996 15.7769C14.4685 15.7769 8.36328 18.5599 8.36328 21.9929C8.36328 25.426 14.4685 28.209 21.9996 28.209Z" stroke="#00D8FF" stroke-width="1.4"/>
<path d="M16.6819 25.1008C20.4475 31.7077 25.8793 35.6722 28.8143 33.9556C31.7493 32.2391 31.0759 25.4916 27.3104 18.8847C23.5448 12.2778 18.1129 8.31339 15.1779 10.0299C12.243 11.7464 12.9163 18.4939 16.6819 25.1008Z" stroke="#00D8FF" stroke-width="1.4"/>
<path d="M16.6861 18.885C12.9206 25.4919 12.2472 32.2393 15.1822 33.9559C18.1172 35.6724 23.5491 31.7079 27.3146 25.101C31.0802 18.4941 31.7535 11.7467 28.8186 10.0301C25.8836 8.31362 20.4517 12.2781 16.6861 18.885Z" stroke="#00D8FF" stroke-width="1.4"/>
</g>
<defs>
<clipPath id="clip0_143_1201">
<rect width="30" height="28" fill="white" transform="translate(7 8)"/>
</clipPath>
</defs>
</svg>
