<svg width="44" height="44" viewBox="0 0 44 44" fill="none" xmlns="http://www.w3.org/2000/svg">
<rect width="44" height="44" rx="8" fill="#764ABC"/>
<path d="M27.0845 26.9645C28.0573 26.8638 28.7953 26.0253 28.7617 25.019C28.7282 24.0127 27.8896 23.2076 26.8833 23.2076H26.8162C25.7764 23.2412 24.9713 24.1133 25.0049 25.1531C25.0384 25.6563 25.2397 26.0923 25.5415 26.3942C24.4011 28.6416 22.6568 30.2853 20.0404 31.6605C18.2626 32.5998 16.4178 32.9352 14.5729 32.7004C13.0634 32.4991 11.8894 31.8283 11.1514 30.7213C10.0781 29.0777 9.97743 27.2999 10.8831 25.5221C11.5204 24.2475 12.5267 23.3082 13.1641 22.8386C13.0299 22.4026 12.8286 21.6646 12.728 21.1279C7.8642 24.65 8.36735 29.4131 9.84326 31.6605C10.9502 33.3377 13.1976 34.3776 15.6798 34.3776C16.3507 34.3776 17.0215 34.3105 17.6924 34.1428C21.986 33.3042 25.2397 30.7549 27.0845 26.9645Z" fill="white"/>
<path d="M32.9915 22.8047C30.4422 19.8194 26.6853 18.1757 22.3918 18.1757H21.8551C21.5532 17.572 20.9159 17.1694 20.2115 17.1694H20.1444C19.1045 17.203 18.2995 18.0751 18.333 19.1149C18.3666 20.1212 19.2052 20.9263 20.2115 20.9263H20.2786C21.0165 20.8927 21.6538 20.4231 21.9222 19.7858H22.526C25.0753 19.7858 27.4904 20.5238 29.6707 21.9661C31.3479 23.0731 32.5554 24.5154 33.2263 26.2597C33.7965 27.6685 33.763 29.0438 33.1592 30.2178C32.22 31.9956 30.6435 32.9684 28.5638 32.9684C27.222 32.9684 25.9474 32.5658 25.2765 32.2639C24.9075 32.5994 24.2367 33.1361 23.7671 33.4715C25.2094 34.1424 26.6853 34.5114 28.0942 34.5114C31.3143 34.5114 33.6959 32.7336 34.6016 30.9558C35.5743 29.0102 35.5072 25.6559 32.9915 22.8047Z" fill="white"/>
<path d="M15.9486 27.5346C15.9821 28.5409 16.8207 29.3459 17.827 29.3459H17.8941C18.9339 29.3124 19.7389 28.4403 19.7054 27.4004C19.6719 26.3941 18.8333 25.5891 17.827 25.5891H17.7599C17.6928 25.5891 17.5922 25.5891 17.5251 25.6226C16.1498 23.3417 15.5796 20.8595 15.7808 18.176C15.915 16.1634 16.5859 14.4192 17.7599 12.9768C18.7326 11.7357 20.6111 11.1319 21.8857 11.0984C25.4413 11.0313 26.9508 15.459 27.0514 17.2368C27.4875 17.3374 28.2254 17.5722 28.7286 17.7399C28.326 12.3059 24.9717 9.48828 21.7516 9.48828C18.7326 9.48828 15.9486 11.6686 14.8416 14.8888C13.2986 19.1823 14.3049 23.3081 16.1834 26.5618C16.0156 26.7967 15.915 27.1656 15.9486 27.5346Z" fill="white"/>
</svg>
