<svg width="44" height="44" viewBox="0 0 44 44" fill="none" xmlns="http://www.w3.org/2000/svg">
<rect width="44" height="44" rx="8" fill="#2F292C"/>
<path d="M33.8486 23.7958C32.7039 23.8016 31.709 24.0704 30.8759 24.4678C30.5702 23.8776 30.2645 23.3517 30.2106 22.966C30.1507 22.5161 30.0787 22.2415 30.1507 21.7039C30.2226 21.1663 30.5462 20.4008 30.5402 20.3424C30.5342 20.2839 30.4683 20.0093 29.809 20.0035C29.1497 19.9976 28.5804 20.1262 28.5144 20.2956C28.4485 20.4651 28.3226 20.8507 28.2387 21.2481C28.1249 21.8324 26.9202 23.9185 26.2309 25.0112C26.0092 24.5847 25.8174 24.2107 25.7754 23.9127C25.7155 23.4627 25.6436 23.1881 25.7155 22.6505C25.7874 22.1129 26.111 21.3474 26.1051 21.289C26.0991 21.2306 26.0331 20.9559 25.3738 20.9501C24.7146 20.9442 24.1452 21.0728 24.0793 21.2422C24.0133 21.4117 23.9414 21.8091 23.8036 22.1947C23.6657 22.5804 22.0654 26.063 21.6459 26.9629C21.4301 27.4245 21.2443 27.7927 21.1125 28.0439C21.1125 28.0439 21.1065 28.0615 21.0885 28.0907C20.9746 28.3069 20.9087 28.4237 20.9087 28.4237C20.9087 28.4237 20.9087 28.4237 20.9087 28.4296C20.8188 28.5874 20.7229 28.7334 20.675 28.7334C20.639 28.7334 20.5731 28.3127 20.6869 27.7401C20.9267 26.5305 21.4961 24.6489 21.4901 24.5847C21.4901 24.5496 21.5979 24.2224 21.1185 24.0529C20.651 23.8835 20.4832 24.1639 20.4412 24.1639C20.3992 24.1639 20.3693 24.2633 20.3693 24.2633C20.3693 24.2633 20.8907 22.148 19.3744 22.148C18.4274 22.148 17.1208 23.1589 16.4735 24.0704C16.066 24.2866 15.1969 24.7483 14.2679 25.245C13.9143 25.4378 13.5487 25.6306 13.2071 25.8118C13.1831 25.7884 13.1591 25.7592 13.1351 25.7358C11.3011 23.825 7.90881 22.4752 8.05265 19.91C8.1066 18.975 8.43624 16.5208 14.5676 13.5407C19.6141 11.1157 23.6297 11.7877 24.325 13.2777C25.3199 15.4047 22.1733 19.3548 16.959 19.9275C14.9691 20.1437 13.9263 19.3957 13.6626 19.1153C13.3869 18.8231 13.3449 18.8056 13.243 18.864C13.0752 18.9516 13.1831 19.2146 13.243 19.3665C13.3988 19.7639 14.0402 20.4651 15.125 20.8098C16.0839 21.1137 18.4154 21.2832 21.2383 20.2197C24.3969 19.0276 26.8662 15.7144 26.141 12.9388C25.4158 10.1223 20.621 9.19322 16.0839 10.7651C13.3869 11.7 10.462 13.1726 8.35832 15.0892C5.85903 17.3681 5.46346 19.349 5.62529 20.1788C6.20666 23.1238 10.3721 25.0404 12.0383 26.4604C11.9544 26.5071 11.8765 26.548 11.8106 26.5831C10.9775 26.9863 7.80093 28.6049 7.00979 30.317C6.11076 32.257 7.15363 33.6477 7.84288 33.8347C9.98256 34.4132 12.1822 33.3731 13.3629 31.6551C14.5436 29.9372 14.3998 27.705 13.8544 26.6824C13.8484 26.6707 13.8424 26.659 13.8304 26.6474C14.0461 26.5247 14.2679 26.3961 14.4837 26.2734C14.9092 26.028 15.3288 25.8001 15.6884 25.6131C15.4846 26.1565 15.3347 26.8051 15.2628 27.7401C15.1729 28.8386 15.6344 30.2644 16.2398 30.8254C16.5095 31.0708 16.8271 31.0766 17.0309 31.0766C17.7381 31.0766 18.0558 30.504 18.4094 29.8262C18.8409 28.9964 19.2305 28.0322 19.2305 28.0322C19.2305 28.0322 18.745 30.6384 20.0636 30.6384C20.5431 30.6384 21.0286 30.0307 21.2443 29.721C21.2443 29.7268 21.2443 29.7268 21.2443 29.7268C21.2443 29.7268 21.2563 29.7093 21.2803 29.6684C21.3282 29.5924 21.3582 29.5457 21.3582 29.5457C21.3582 29.5457 21.3582 29.5398 21.3582 29.534C21.55 29.2068 21.9815 28.4647 22.6228 27.2317C23.4499 25.6423 24.2471 23.6556 24.2471 23.6556C24.2471 23.6556 24.319 24.1406 24.5647 24.9469C24.7086 25.4203 25.0082 25.9403 25.248 26.4428C25.0562 26.7058 24.9363 26.8519 24.9363 26.8519C24.9363 26.8519 24.9363 26.8519 24.9423 26.8577C24.7865 27.0564 24.6187 27.2726 24.4329 27.483C23.7796 28.2426 23.0004 29.1133 22.8925 29.3645C22.7667 29.6625 22.7966 29.8787 23.0364 30.054C23.2102 30.1826 23.5219 30.2001 23.8395 30.1826C24.4269 30.1417 24.8404 30.0015 25.0442 29.9138C25.3619 29.8028 25.7335 29.6333 26.0811 29.3821C26.7224 28.9204 27.112 28.2601 27.076 27.3895C27.058 26.9103 26.8962 26.4312 26.6984 25.9812C26.7583 25.8994 26.8123 25.8176 26.8722 25.7358C27.8851 24.2925 28.6703 22.7089 28.6703 22.7089C28.6703 22.7089 28.7422 23.1939 28.9879 24.0003C29.1078 24.4094 29.3535 24.8534 29.5693 25.2859C28.6163 26.0397 28.029 26.9162 27.8192 27.4888C27.4416 28.5523 27.7353 29.0315 28.2927 29.1425C28.5444 29.1951 28.904 29.0782 29.1677 28.9672C29.5034 28.862 29.8989 28.6809 30.2765 28.4121C30.9178 27.9504 31.5352 27.3077 31.4992 26.437C31.4812 26.0397 31.3733 25.6481 31.2235 25.2683C32.0326 24.9411 33.0755 24.76 34.406 24.9119C37.2589 25.2391 37.8223 26.9746 37.7145 27.705C37.6066 28.4354 37.0072 28.8328 36.8094 28.9555C36.6117 29.0782 36.5457 29.1191 36.5637 29.2068C36.5877 29.3353 36.6836 29.3295 36.8514 29.3061C37.0851 29.2652 38.3498 28.7159 38.4037 27.3719C38.4936 25.654 36.8154 23.7783 33.8486 23.7958ZM11.8405 31.0299C10.8936 32.035 9.575 32.4148 9.00562 32.0934C8.39428 31.7486 8.63402 30.2644 9.79676 29.2009C10.504 28.5523 11.415 27.9504 12.0203 27.5823C12.1582 27.5005 12.362 27.3836 12.6077 27.2375C12.6497 27.2142 12.6736 27.2025 12.6736 27.2025C12.7216 27.1733 12.7695 27.144 12.8175 27.1148C13.243 28.6341 12.8355 29.9722 11.8405 31.0299ZM18.7331 26.4604C18.4034 27.2434 17.7142 29.2477 17.2946 29.1366C16.935 29.0431 16.7133 27.5239 17.2227 26.0221C17.4804 25.2683 18.0258 24.3685 18.3435 24.0178C18.8589 23.4569 19.4283 23.2699 19.5662 23.4978C19.74 23.7958 18.9368 25.9695 18.7331 26.4604ZM24.4209 29.1133C24.283 29.1834 24.1512 29.2301 24.0912 29.1951C24.0493 29.1717 24.1512 29.0782 24.1512 29.0782C24.1512 29.0782 24.8644 28.3303 25.1461 27.9913C25.3079 27.7927 25.4997 27.5589 25.7035 27.296C25.7035 27.3194 25.7035 27.3486 25.7035 27.3719C25.7035 28.266 24.8165 28.8678 24.4209 29.1133ZM28.8081 28.1374C28.7062 28.0673 28.7242 27.8336 29.0658 27.1031C29.1977 26.8168 29.5094 26.3377 30.0428 25.876C30.1027 26.063 30.1447 26.2442 30.1387 26.4136C30.1327 27.5414 29.3056 27.9621 28.8081 28.1374Z" fill="#CD6799"/>
</svg>
