<svg width="44" height="44" viewBox="0 0 44 44" fill="none" xmlns="http://www.w3.org/2000/svg">
<rect width="44" height="44" rx="8" fill="#3178C6"/>
<path fill-rule="evenodd" clip-rule="evenodd" d="M25.2369 33.013V37.3151C25.9363 37.6736 26.7635 37.9425 27.7184 38.1217C28.6733 38.301 29.6797 38.3906 30.7378 38.3906C31.769 38.3906 32.7485 38.2921 33.6765 38.0948C34.6046 37.8977 35.4183 37.5728 36.1177 37.1201C36.817 36.6676 37.3707 36.076 37.7787 35.3455C38.1866 34.615 38.3906 33.7121 38.3906 32.6366C38.3906 31.8568 38.2741 31.1734 38.0409 30.5864C37.8078 29.9993 37.4716 29.4773 37.0322 29.0202C36.5929 28.5631 36.0661 28.153 35.4519 27.79C34.8377 27.427 34.1451 27.0842 33.3739 26.7616C32.8091 26.5285 32.3025 26.3022 31.8541 26.0827C31.4058 25.863 31.0247 25.639 30.7109 25.4105C30.3971 25.1819 30.155 24.9399 29.9846 24.6845C29.8143 24.429 29.7291 24.14 29.7291 23.8173C29.7291 23.5215 29.8053 23.2549 29.9578 23.0174C30.1102 22.7798 30.3254 22.576 30.6033 22.4056C30.8813 22.2354 31.222 22.1031 31.6255 22.009C32.029 21.9149 32.4773 21.8679 32.9705 21.8679C33.3291 21.8679 33.7079 21.8948 34.1069 21.9485C34.5059 22.0023 34.9072 22.0853 35.3107 22.1972C35.7142 22.3093 36.1064 22.4505 36.4875 22.6208C36.8686 22.7911 37.2205 22.9882 37.5433 23.2123V19.1925C36.8888 18.9416 36.1737 18.7556 35.3981 18.6346C34.6225 18.5136 33.7326 18.4531 32.7284 18.4531C31.7061 18.4531 30.7378 18.563 29.8233 18.7825C28.9087 19.0021 28.104 19.3449 27.409 19.8109C26.7141 20.2771 26.165 20.8708 25.7615 21.5923C25.358 22.3138 25.1562 23.1764 25.1562 24.1803C25.1562 25.4619 25.5261 26.5554 26.2659 27.4607C27.0055 28.3658 28.1286 29.1321 29.635 29.7596C30.2267 30.0016 30.7782 30.239 31.2893 30.4721C31.8003 30.7051 32.242 30.9471 32.614 31.1981C32.9861 31.449 33.2797 31.7224 33.495 32.0182C33.7102 32.3139 33.8178 32.65 33.8178 33.0265C33.8178 33.3043 33.7505 33.562 33.616 33.7995C33.4815 34.037 33.2775 34.2431 33.0041 34.4179C32.7306 34.5927 32.3899 34.7293 31.9819 34.8279C31.5739 34.9266 31.0965 34.9758 30.5495 34.9758C29.617 34.9758 28.6935 34.8123 27.7789 34.4851C26.8643 34.158 26.017 33.6673 25.2369 33.013ZM18.0045 22.4133H23.5234V18.8828H8.14062V22.4133H13.6325V38.1328H18.0045V22.4133Z" fill="white"/>
</svg>
