<svg width="44" height="44" viewBox="0 0 44 44" fill="none" xmlns="http://www.w3.org/2000/svg">
<rect width="44" height="44" rx="8" fill="#00FF7F"/>
<g clip-path="url(#clip0_143_1233)">
<path d="M35.7658 11.773L22.7513 35.3908C22.4826 35.8784 21.7923 35.8812 21.5195 35.396L8.24698 11.7752C7.94985 11.2464 8.39541 10.6059 8.98587 10.713L22.0143 13.0764C22.0974 13.0914 22.1825 13.0913 22.2656 13.0759L35.0216 10.7164C35.6101 10.6076 36.0577 11.2431 35.7658 11.773Z" fill="url(#paint0_linear_143_1233)"/>
<path d="M28.2202 7.61289L18.5891 9.52809C18.4308 9.55957 18.3136 9.69571 18.304 9.8591L17.7116 20.0137C17.6976 20.2528 17.9141 20.4385 18.1441 20.3846L20.8255 19.7566C21.0764 19.6979 21.3031 19.9221 21.2516 20.1782L20.4549 24.1372C20.4013 24.4036 20.6478 24.6315 20.9042 24.5524L22.5604 24.0418C22.8171 23.9627 23.0638 24.1912 23.0095 24.4578L21.7435 30.6765C21.6643 31.0655 22.1741 31.2776 22.3867 30.9441L22.5288 30.7214L30.3767 14.8268C30.5081 14.5607 30.2815 14.2572 29.9935 14.3136L27.2334 14.8542C26.974 14.905 26.7534 14.6599 26.8266 14.4023L28.628 8.06458C28.7013 7.80661 28.4798 7.56126 28.2202 7.61289Z" fill="url(#paint1_linear_143_1233)"/>
</g>
<defs>
<linearGradient id="paint0_linear_143_1233" x1="7.92292" y1="9.86895" x2="24.4315" y2="31.9608" gradientUnits="userSpaceOnUse">
<stop stop-color="#41D1FF"/>
<stop offset="1" stop-color="#BD34FE"/>
</linearGradient>
<linearGradient id="paint1_linear_143_1233" x1="21.2663" y1="8.13286" x2="24.2821" y2="28.5186" gradientUnits="userSpaceOnUse">
<stop stop-color="#FFEA83"/>
<stop offset="0.0833333" stop-color="#FFDD35"/>
<stop offset="1" stop-color="#FFA800"/>
</linearGradient>
<clipPath id="clip0_143_1233">
<rect width="29" height="29" fill="white" transform="translate(7.5 7.5)"/>
</clipPath>
</defs>
</svg>
