<svg width="40" height="40" viewBox="0 0 40 40" fill="none" xmlns="http://www.w3.org/2000/svg">
<g clip-path="url(#clip0_2034_39)">
<path d="M32 0H8C3.58172 0 0 3.58172 0 8V32C0 36.4183 3.58172 40 8 40H32C36.4183 40 40 36.4183 40 32V8C40 3.58172 36.4183 0 32 0Z" fill="#F09B4C"/>
<path d="M32 0.3125H8C3.75431 0.3125 0.3125 3.75431 0.3125 8V32C0.3125 36.2457 3.75431 39.6875 8 39.6875H32C36.2457 39.6875 39.6875 36.2457 39.6875 32V8C39.6875 3.75431 36.2457 0.3125 32 0.3125Z" stroke="black" stroke-opacity="0.1"/>
<path d="M28.5938 11.4062H11.4062C10.9918 11.4062 10.5944 11.5709 10.3014 11.8639C10.0084 12.1569 9.84375 12.5543 9.84375 12.9688V27.0312C9.84375 27.4457 10.0084 27.8432 10.3014 28.1362C10.5944 28.4291 10.9918 28.5938 11.4062 28.5938H28.5938C29.0082 28.5938 29.4056 28.4291 29.6986 28.1362C29.9916 27.8432 30.1562 27.4457 30.1562 27.0312V12.9688C30.1562 12.5543 29.9916 12.1569 29.6986 11.8639C29.4056 11.5709 29.0082 11.4063 28.5938 11.4062ZM16.5625 21.7188C16.7283 21.8431 16.8378 22.0281 16.8671 22.2333C16.8965 22.4384 16.8431 22.6467 16.7188 22.8125C16.5944 22.9783 16.4094 23.0878 16.2042 23.1171C15.9991 23.1465 15.7908 23.0932 15.625 22.9688L12.5 20.625C12.403 20.5522 12.3242 20.4579 12.27 20.3494C12.2157 20.2409 12.1875 20.1213 12.1875 20C12.1875 19.8787 12.2157 19.7591 12.27 19.6507C12.3242 19.5422 12.403 19.4478 12.5 19.375L15.625 17.0312C15.7908 16.9069 15.9991 16.8535 16.2042 16.8829C16.4094 16.9123 16.5944 17.0217 16.7188 17.1875C16.8431 17.3533 16.8965 17.5617 16.8671 17.7668C16.8378 17.972 16.7283 18.1569 16.5625 18.2813L14.2705 20L16.5625 21.7188ZM22.3135 14.7462L19.1885 25.6836C19.1618 25.784 19.1155 25.8781 19.052 25.9604C18.9886 26.0427 18.9094 26.1113 18.8191 26.1626C18.7288 26.2139 18.6291 26.2468 18.526 26.2591C18.4229 26.2713 18.3183 26.263 18.2185 26.2344C18.1186 26.2058 18.0254 26.1576 17.9444 26.0926C17.8634 26.0276 17.7962 25.9472 17.7467 25.8559C17.6971 25.7646 17.6663 25.6643 17.656 25.5609C17.6456 25.4576 17.656 25.3533 17.6865 25.254L20.8115 14.3164C20.8716 14.1208 21.006 13.9567 21.1858 13.8591C21.3656 13.7615 21.5765 13.7384 21.7732 13.7946C21.9699 13.8509 22.1367 13.9821 22.2377 14.16C22.3387 14.3379 22.3659 14.5484 22.3135 14.7462ZM27.5 20.625L24.375 22.9688C24.2092 23.0932 24.0009 23.1465 23.7958 23.1171C23.5906 23.0878 23.4056 22.9783 23.2813 22.8125C23.1569 22.6467 23.1035 22.4384 23.1329 22.2333C23.1622 22.0281 23.2717 21.8431 23.4375 21.7188L25.7295 20L23.4375 18.2813C23.3554 18.2197 23.2863 18.1427 23.234 18.0543C23.1817 17.966 23.1474 17.8684 23.1329 17.7668C23.1183 17.6653 23.124 17.5617 23.1494 17.4625C23.1749 17.363 23.2197 17.2696 23.2813 17.1875C23.3428 17.1054 23.4199 17.0363 23.5082 16.984C23.5965 16.9317 23.6942 16.8974 23.7958 16.8829C23.8973 16.8684 24.0008 16.8741 24.1001 16.8995C24.1995 16.925 24.2929 16.9697 24.375 17.0312L27.5 19.375C27.597 19.4478 27.6758 19.5422 27.73 19.6507C27.7843 19.7591 27.8125 19.8787 27.8125 20C27.8125 20.1213 27.7843 20.2409 27.73 20.3494C27.6758 20.4579 27.597 20.5522 27.5 20.625Z" fill="white"/>
</g>
<defs>
<clipPath id="clip0_2034_39">
<rect width="40" height="40" fill="white"/>
</clipPath>
</defs>
</svg>
