<svg width="40" height="40" viewBox="0 0 40 40" fill="none" xmlns="http://www.w3.org/2000/svg">
<g clip-path="url(#clip0_2034_156)">
<path d="M32 0H8C3.58172 0 0 3.58172 0 8V32C0 36.4183 3.58172 40 8 40H32C36.4183 40 40 36.4183 40 32V8C40 3.58172 36.4183 0 32 0Z" fill="#2D66F6"/>
<path d="M32 0.3125H8C3.75431 0.3125 0.3125 3.75431 0.3125 8V32C0.3125 36.2457 3.75431 39.6875 8 39.6875H32C36.2457 39.6875 39.6875 36.2457 39.6875 32V8C39.6875 3.75431 36.2457 0.3125 32 0.3125Z" stroke="black" stroke-opacity="0.1"/>
<mask id="mask0_2034_156" style="mask-type:luminance" maskUnits="userSpaceOnUse" x="7" y="7" width="26" height="26">
<path d="M32.5 7.5H7.5V32.5H32.5V7.5Z" fill="white"/>
</mask>
<g mask="url(#mask0_2034_156)">
<path d="M24.6873 27.7382C25.2262 27.5258 25.7485 27.2735 26.2498 26.9833V30.9374C26.2498 31.1446 26.1674 31.3433 26.0209 31.4898C25.8744 31.6363 25.6757 31.7186 25.4685 31.7186C25.2613 31.7186 25.0626 31.6363 24.9161 31.4898C24.7696 31.3433 24.6873 31.1446 24.6873 30.9374V27.7382ZM25.8357 19.1024L20.3669 16.1854C20.1845 16.0922 19.9727 16.0744 19.7773 16.1359C19.5818 16.1973 19.4183 16.3331 19.322 16.5139C19.2257 16.6948 19.2043 16.9062 19.2624 17.1027C19.3205 17.2991 19.4534 17.4649 19.6326 17.5643L24.199 19.9999L25.8591 19.1151L25.8357 19.1024ZM32.0857 16.1854L20.3669 9.93542C20.2539 9.87523 20.1278 9.84375 19.9998 9.84375C19.8717 9.84375 19.7456 9.87523 19.6326 9.93542L7.91382 16.1854C7.78882 16.252 7.68429 16.3514 7.6114 16.4728C7.53851 16.5943 7.5 16.7332 7.5 16.8749C7.5 17.0165 7.53851 17.1555 7.6114 17.2769C7.68429 17.3984 7.78882 17.4977 7.91382 17.5643L10.6248 19.0106V23.7391C10.6239 24.1229 10.7651 24.4934 11.0212 24.7792C12.3005 26.204 15.1667 28.5936 19.9998 28.5936C21.6022 28.6069 23.1928 28.3166 24.6873 27.7382V20.2606L24.199 19.9999L19.9998 22.2391L11.78 17.8514L9.94116 16.8749L19.9998 11.5106L30.0583 16.8749L28.2244 17.8514H28.2185L25.8591 19.1151C25.9779 19.1837 26.0766 19.2823 26.1451 19.4011C26.2137 19.5199 26.2498 19.6547 26.2498 19.7919V26.9833C27.2685 26.3952 28.1892 25.6515 28.9783 24.7792C29.2344 24.4934 29.3757 24.1229 29.3748 23.7391V19.0106L32.0857 17.5643C32.2107 17.4977 32.3152 17.3984 32.3881 17.2769C32.461 17.1555 32.4995 17.0165 32.4995 16.8749C32.4995 16.7332 32.461 16.5943 32.3881 16.4728C32.3152 16.3514 32.2107 16.252 32.0857 16.1854Z" fill="white"/>
</g>
</g>
<defs>
<clipPath id="clip0_2034_156">
<rect width="40" height="40" fill="white"/>
</clipPath>
</defs>
</svg>
