<svg width="40" height="40" viewBox="0 0 40 40" fill="none" xmlns="http://www.w3.org/2000/svg">
<g clip-path="url(#clip0_2034_146)">
<path d="M32 0H8C3.58172 0 0 3.58172 0 8V32C0 36.4183 3.58172 40 8 40H32C36.4183 40 40 36.4183 40 32V8C40 3.58172 36.4183 0 32 0Z" fill="#4CBFF0"/>
<path d="M32 0.3125H8C3.75431 0.3125 0.3125 3.75431 0.3125 8V32C0.3125 36.2457 3.75431 39.6875 8 39.6875H32C36.2457 39.6875 39.6875 36.2457 39.6875 32V8C39.6875 3.75431 36.2457 0.3125 32 0.3125Z" stroke="black" stroke-opacity="0.1"/>
<path d="M19.2194 26.987V29.696C19.2198 29.7513 19.2084 29.806 19.186 29.8566C19.1636 29.9072 19.1308 29.9524 19.0896 29.9894C19.0484 30.0263 18.9999 30.054 18.9472 30.0708C18.8945 30.0876 18.8388 30.0929 18.7839 30.0866C16.528 29.8108 14.4294 28.7878 12.8224 27.1808C11.2154 25.5738 10.1925 23.4752 9.91666 21.2194C9.9103 21.1645 9.91567 21.1088 9.93244 21.0561C9.9492 21.0034 9.97696 20.9548 10.0139 20.9137C10.0508 20.8725 10.0961 20.8396 10.1467 20.8172C10.1972 20.7949 10.252 20.7835 10.3073 20.7839H13.0143C13.1941 22.3674 13.9056 23.8431 15.0327 24.9699C16.1598 26.0966 17.6358 26.8077 19.2194 26.987ZM25.4128 20.7819H20.7819V25.4128C21.9495 25.2424 23.0309 24.6996 23.8653 23.8653C24.6997 23.0309 25.2424 21.9495 25.4128 20.7819ZM20.7819 14.5885V19.2194H25.4128C25.2424 18.0518 24.6997 16.9704 23.8653 16.136C23.0309 15.3017 21.9495 14.7589 20.7819 14.5885ZM29.696 20.7819H26.987C26.8077 22.3658 26.0963 23.842 24.9691 24.9691C23.842 26.0963 22.3658 26.8077 20.7819 26.987V29.696C20.7815 29.7513 20.7929 29.806 20.8153 29.8566C20.8377 29.9072 20.8705 29.9524 20.9117 29.9894C20.9529 30.0263 21.0014 30.054 21.0541 30.0708C21.1069 30.0876 21.1625 30.0929 21.2175 30.0866C23.4733 29.8108 25.5719 28.7878 27.1789 27.1808C28.7859 25.5738 29.8088 23.4752 30.0846 21.2194C30.0913 21.1645 30.0862 21.1088 30.0697 21.056C30.0532 21.0031 30.0256 20.9545 29.9889 20.9131C29.9521 20.8717 29.907 20.8386 29.8565 20.816C29.806 20.7934 29.7513 20.7818 29.696 20.7819ZM26.987 19.2194H29.696C29.7513 19.2198 29.806 19.2084 29.8566 19.186C29.9072 19.1636 29.9524 19.1308 29.9894 19.0896C30.0263 19.0484 30.0541 18.9999 30.0708 18.9472C30.0876 18.8945 30.093 18.8388 30.0866 18.7839C29.8108 16.528 28.7879 14.4294 27.1809 12.8224C25.5739 11.2154 23.4752 10.1925 21.2194 9.91666C21.1645 9.9103 21.1088 9.91567 21.0561 9.93243C21.0034 9.9492 20.9548 9.97696 20.9137 10.0139C20.8725 10.0508 20.8396 10.0961 20.8173 10.1467C20.7949 10.1972 20.7835 10.252 20.7839 10.3073V13.0143C22.3674 13.1941 23.8432 13.9056 24.9699 15.0327C26.0966 16.1598 26.8078 17.6358 26.987 19.2194ZM18.7839 9.91666C16.528 10.1925 14.4294 11.2154 12.8224 12.8224C11.2154 14.4294 10.1925 16.528 9.91666 18.7839C9.9103 18.8388 9.91567 18.8945 9.93244 18.9472C9.9492 18.9999 9.97696 19.0484 10.0139 19.0896C10.0508 19.1308 10.0961 19.1636 10.1467 19.186C10.1972 19.2084 10.252 19.2198 10.3073 19.2194H13.0143C13.1937 17.6355 13.905 16.1593 15.0322 15.0322C16.1593 13.905 17.6355 13.1936 19.2194 13.0143V10.3053C19.2195 10.2502 19.2079 10.1957 19.1854 10.1453C19.1629 10.095 19.13 10.05 19.0889 10.0132C19.0477 9.97652 18.9993 9.94894 18.9467 9.93229C18.8941 9.91564 18.8386 9.91032 18.7839 9.91666ZM14.5886 19.2194H19.2194V14.5885C18.0518 14.7589 16.9704 15.3017 16.136 16.136C15.3017 16.9704 14.7589 18.0518 14.5886 19.2194ZM19.2194 25.4128V20.7819H14.5886C14.7589 21.9495 15.3017 23.0309 16.136 23.8653C16.9704 24.6996 18.0518 25.2424 19.2194 25.4128Z" fill="white"/>
</g>
<defs>
<clipPath id="clip0_2034_146">
<rect width="40" height="40" fill="white"/>
</clipPath>
</defs>
</svg>
