<svg width="40" height="40" viewBox="0 0 40 40" fill="none" xmlns="http://www.w3.org/2000/svg">
<g clip-path="url(#clip0_2034_76)">
<path d="M32 0H8C3.58172 0 0 3.58172 0 8V32C0 36.4183 3.58172 40 8 40H32C36.4183 40 40 36.4183 40 32V8C40 3.58172 36.4183 0 32 0Z" fill="#F04C70"/>
<path d="M32 0.3125H8C3.75431 0.3125 0.3125 3.75431 0.3125 8V32C0.3125 36.2457 3.75431 39.6875 8 39.6875H32C36.2457 39.6875 39.6875 36.2457 39.6875 32V8C39.6875 3.75431 36.2457 0.3125 32 0.3125Z" stroke="black" stroke-opacity="0.1"/>
<mask id="mask0_2034_76" style="mask-type:luminance" maskUnits="userSpaceOnUse" x="7" y="7" width="26" height="26">
<path d="M32.5 7.5H7.5V32.5H32.5V7.5Z" fill="white"/>
</mask>
<g mask="url(#mask0_2034_76)">
<path d="M29.9932 21.2755C29.7377 21.0786 29.4448 20.9358 29.1324 20.8557C28.8199 20.7756 28.4945 20.7599 28.1758 20.8097C30.0098 18.9581 30.9375 17.1173 30.9375 15.3126C30.9375 12.7276 28.8584 10.6251 26.3027 10.6251C25.6246 10.6208 24.9538 10.7651 24.3373 11.0476C23.7209 11.3302 23.1738 11.7443 22.7344 12.2608C22.295 11.7443 21.7479 11.3302 21.1314 11.0476C20.515 10.7651 19.8441 10.6208 19.166 10.6251C16.6104 10.6251 14.5312 12.7276 14.5312 15.3126C14.5312 16.3868 14.8477 17.4308 15.5137 18.5352C14.9682 18.6734 14.4704 18.9569 14.0732 19.3556L11.8643 21.5626H9.0625C8.6481 21.5626 8.25067 21.7272 7.95765 22.0202C7.66462 22.3133 7.5 22.7107 7.5 23.1251V27.0313C7.5 27.4457 7.66462 27.8432 7.95765 28.1362C8.25067 28.4292 8.6481 28.5938 9.0625 28.5938H19.2188C19.2826 28.5938 19.3462 28.5859 19.4082 28.5704L25.6582 27.0079C25.698 26.9984 25.7369 26.9853 25.7744 26.9688L29.5703 25.3536L29.6133 25.3341C29.9781 25.1518 30.2905 24.8796 30.5211 24.5432C30.7516 24.2068 30.8927 23.8173 30.9311 23.4112C30.9695 23.0052 30.9039 22.5961 30.7405 22.2225C30.5771 21.8488 30.3212 21.5229 29.9971 21.2755H29.9932ZM28.9287 23.9268L25.2178 25.5069L19.1211 27.0313H12.9688V22.6671L15.1787 20.4581C15.3233 20.3124 15.4954 20.1968 15.685 20.1182C15.8746 20.0396 16.0779 19.9994 16.2832 20.0001H21.1719C21.4827 20.0001 21.7807 20.1236 22.0005 20.3433C22.2203 20.5631 22.3438 20.8612 22.3438 21.172C22.3438 21.4828 22.2203 21.7808 22.0005 22.0006C21.7807 22.2204 21.4827 22.3438 21.1719 22.3438H18.4375C18.2303 22.3438 18.0316 22.4262 17.8851 22.5727C17.7386 22.7192 17.6562 22.9179 17.6562 23.1251C17.6562 23.3323 17.7386 23.531 17.8851 23.6775C18.0316 23.824 18.2303 23.9063 18.4375 23.9063H21.5625C21.6213 23.9062 21.6799 23.8996 21.7373 23.8868L28.2803 22.3819L28.3105 22.3741C28.5103 22.3187 28.7235 22.339 28.9091 22.4313C29.0947 22.5236 29.2396 22.6813 29.316 22.874C29.3923 23.0667 29.3947 23.2808 29.3227 23.4752C29.2507 23.6696 29.1093 23.8304 28.9258 23.9268H28.9287Z" fill="white"/>
</g>
</g>
<defs>
<clipPath id="clip0_2034_76">
<rect width="40" height="40" fill="white"/>
</clipPath>
</defs>
</svg>
